<?xml version="1.0" encoding="UTF-8" standalone="no"?>
<svg
   version="1.1"
   viewBox="0.00 0.00 1024.00 1024.00"
   id="svg465"
   sodipodi:docname="superflat-logo-round.svg"
   inkscape:version="1.4 (e7c3feb100, 2024-10-09)"
   inkscape:export-filename="superflat-round.png"
   inkscape:export-xdpi="192"
   inkscape:export-ydpi="192"
   xmlns:inkscape="http://www.inkscape.org/namespaces/inkscape"
   xmlns:sodipodi="http://sodipodi.sourceforge.net/DTD/sodipodi-0.dtd"
   xmlns="http://www.w3.org/2000/svg"
   xmlns:svg="http://www.w3.org/2000/svg">
  <defs
     id="defs465" />
  <sodipodi:namedview
     id="namedview465"
     pagecolor="#ffffff"
     bordercolor="#000000"
     borderopacity="0.25"
     inkscape:showpageshadow="2"
     inkscape:pageopacity="0.0"
     inkscape:pagecheckerboard="0"
     inkscape:deskcolor="#d1d1d1"
     inkscape:zoom="1"
     inkscape:cx="443.5"
     inkscape:cy="523.5"
     inkscape:window-width="2560"
     inkscape:window-height="1376"
     inkscape:window-x="0"
     inkscape:window-y="0"
     inkscape:window-maximized="1"
     inkscape:current-layer="svg465" />
  <rect
     style="fill:#0082ca;fill-opacity:0.00002902;stroke:#ffffff;stroke-width:0;stroke-dasharray:none;paint-order:stroke fill markers"
     id="rect1"
     width="1024"
     height="1024"
     x="0"
     y="0" />
  <circle
     style="fill:#0082ca;fill-opacity:1;stroke-width:0.999082;paint-order:stroke fill markers"
     id="path397"
     cx="512"
     cy="512"
     inkscape:label="circle-border"
     r="512" />
  <path
     fill="#38c7e6"
     d="m 825.94,278.59 -1.43,0.34 c -13.42,0.0133 -26.59,-0.0533 -39.51,-0.2 -3.91,-0.05 -9.36,2.89 -10.68,7.22 -0.45333,1.46667 -0.68667,2.78333 -0.7,3.95 -0.0733,4.53333 -0.0567,11.74 0.05,21.62 0.05,4.12 -0.5,5.82 -4.92,5.91 -5.94,0.12 -14.76667,0.17333 -26.48,0.16 -3.35333,0 -5.70667,0.25333 -7.06,0.76 -2.57333,0.96 -4.36333,2.73333 -5.37,5.32 -0.5,1.27333 -0.74,3.16333 -0.72,5.67 0.02,2.76 0.0333,4.69 0.04,5.79 0.0167,1.73754 -1.37259,3.16259 -3.11,3.19 -10.84,0.16667 -22.68333,0.14 -35.53,-0.08 -3.72667,-0.0667 -6.46667,0.36667 -8.22,1.3 -4.1,2.17333 -6.14333,5.49667 -6.13,9.97 0.0133,4.48 0.01,13.81667 -0.01,28.01 -0.007,5.98 2.04,10.12333 6.14,12.43 0.9,0.51333 1.94333,0.89 3.13,1.13 1.52667,0.31333 2.63333,0.47333 3.32,0.48 14.01333,0.0533 29.63145,-0.19312 44.19812,-0.33312 1.28313,0.005 7.93445,-0.074 9.60778,-0.074 46.76,-0.0467 86.72077,0.65381 133.4941,0.68711 2.64,8.73333 4.49,17.9 5.55,27.5 -4.60833,-2.07375 -8.23542,-2.79125 -12.85,-3.09 -11.78667,-0.33333 -19.62333,-0.35333 -23.51,-0.06 -3.91333,0.29333 -6.62333,2.28333 -8.13,5.97 -1.2,2.92 -0.94,6.43 -1.17,10.55 -0.0428,0.8674 -0.76622,1.54669 -1.64,1.54 -7.4,-0.0867 -13.31667,-0.05 -17.75,0.11 -0.74,0.0267 -1.79333,0.31333 -3.16,0.86 -1.10667,0.44667 -1.96333,1.07667 -2.57,1.89 -1.32667,1.77333 -1.89798,3.82877 -2.17798,6.1221 -0.0867,1.46 0.49202,2.39991 -0.95577,2.37344 -20.02,0.0267 -42.22802,0.21478 -62.07469,0.31477 -0.70324,0.006 -1.05135,0.17008 -1.21437,-0.50937 -0.41,-1.68 -0.40719,-4.59094 -0.94719,-5.99094 -1.44667,-3.74667 -4.42667,-5.59 -8.94,-5.53 -8.98667,0.11333 -17.97667,0.21667 -26.97,0.31 -10.80667,-0.19333 -21.61333,-0.27667 -32.42,-0.25 -4.71333,0.007 -7.77,2.16 -9.17,6.46 l -0.44,3.25 c -0.12,0.86696 -0.85469,1.51195 -1.72,1.51 l -259.12,0.13 c 0.007,-3.58 0.003,-7.12667 -0.01,-10.64 -0.007,-2.30667 -0.33667,-4.05333 -0.99,-5.24 -2.42,-4.4 -6.27,-3.66 -11.85,-3.67 -37.10667,-0.0333 -74.21333,0.003 -111.32,0.11 -1.43,0.01 -5.29,-0.19 -7.06,0.92 -2.08,1.3 -3.12333,3.3 -3.13,6 -0.007,4.32 0.007,8.66333 0.04,13.03 -2.75333,-0.38 -5.45333,-0.57667 -8.1,-0.59 -9.6,-0.0267 -19.19,0.02 -28.77,0.14 -0.63471,0.007 -1.16275,-0.48168 -1.2,-1.11 -0.34,-5.04 -1.65,-9.06 -7.27,-10.03 -1.00667,-0.17333 -5.63333,-0.05 -13.88,0.37 -2.36,0.12 -3.57,-0.94333 -3.63,-3.19 -0.04,-1.8 -0.13333,-3.87667 -0.28,-6.23 -0.18,-3.05333 -1.46,-5.57333 -3.84,-7.56 -1.42667,-1.19333 -3.51,-1.79667 -6.25,-1.81 -2.40667,-0.02 -4.33,-0.003 -5.77,0.05 -2.13333,0.08 -4.04,0.09 -5.72,0.03 -3.93333,-0.14 -7.85667,-0.13667 -11.77,0.01 -6.12,0.28 -12.32,0.29667 -18.6,0.05 -4.91,-0.19 -9.84,1.07 -12.1,5.71 -1.57,3.23 -1.22,7.15 -1.38,10.88 -0.0338,0.71736 -0.56485,1.31116 -1.27,1.42 -3.73333,0.6 -7.42,0.68667 -11.06,0.26 2.03333,-13.01333 4.45,-25.94 7.25,-38.78 1.80667,-8.30667 4.60333,-18.34 8.39,-30.1 3.71333,-11.56667 6.88,-20.80667 9.5,-27.72 0.73333,-1.92667 2.15333,-4.76667 4.26,-8.52 57.93333,0.0267 115.98,0.0767 174.14,0.15 3.55333,0.007 6.28667,-0.10667 8.2,-0.34 7.98667,-0.96 12.07333,-5.33 12.26,-13.11 0.1,-4.2 0.14333,-18.46333 0.13,-42.79 -0.007,-3.2 -0.47333,-5.85 -1.4,-7.95 -1.08667,-2.44 -3.15,-4.36333 -6.19,-5.77 -1.42,-0.66 -4.09,-0.98667 -8.01,-0.98 -8.22667,0.0267 -16.14,-0.003 -23.74,-0.09 -4.76667,-0.0533 -9.39667,0.0633 -13.89,0.35 -2.39333,0.15333 -3.58333,-0.96667 -3.57,-3.36 0.06,-11.02 0.0967,-18.04333 0.11,-21.07 0.0133,-2.47333 -1.13,-4.8 -3.43,-6.98 -1.28,-1.21333 -2.96333,-1.98667 -5.05,-2.32 -0.84,-0.14 -2.73,-0.25667 -5.67,-0.35 -8.30667,-0.26 -16.64,-0.26333 -25,-0.01 -1.46667,0.04 -2.92667,-0.13333 -4.38,-0.52 -0.33333,-0.0933 -0.49667,-0.31333 -0.49,-0.66 l 0.16,-12.13 c 3.54667,-3.12667 7.01333,-6.18667 10.4,-9.18 4.18667,-3.69333 7.75667,-6.63 10.71,-8.81 5.28,-3.89333 9.83333,-7.35333 13.66,-10.38 6.72,-5.32667 13.90667,-10.3 21.56,-14.92 34.25379,-20.67349 49.92579,-29.52402 87.03,-39.19 23.3,-6.06 45.91,-9.89 67.83,-11.49 27.62667,-2.02 54.96667,-2.28333 82.02,-0.79 7.91333,0.44 16.5,1.13667 25.76,2.09 16.49333,1.7 33.45667,4.74333 50.89,9.13 36.73448,9.8469 51.19081,14.92973 104.54,47.81 3.2,1.99333 10.2,6.95667 21,14.89 1.58667,1.16667 7.36667,6.04667 17.34,14.64 5.20667,4.48667 10.05667,9.00333 14.55,13.55 8.18667,8.28667 13.29,13.57 15.31,15.85 1.56667,1.76 4.75333,5.72667 9.56,11.9 4.24,5.45 8.32,12 12.53,17.78 2.18,3.00667 4.91667,7.85667 8.21,14.55 z M 686.42,195.37 c 2.72,0.22667 5.49667,-0.07 8.33,-0.89 2.87333,-0.83333 4.72,-2.57 5.54,-5.21 0.51333,-1.67333 0.77333,-4.00333 0.78,-6.99 0.0133,-3.05333 -0.24,-5.37667 -0.76,-6.97 -1.8,-5.56 -6.48333,-7.94 -14.05,-7.14 -16.22,-0.12667 -31.89667,-0.15333 -47.03,-0.08 -3.21333,0.0133 -5.48667,0.26333 -6.82,0.75 -6.03,2.18 -6.86,9.44 -6.39,15.37 0.5,6.26 3.72,10.92 10.24,11.03 9.59333,0.16 26.31333,0.20333 50.16,0.13 z m -230.33,212.28 0.44,0.4 -0.58,17.27 c -0.0226,0.6837 0.53027,1.25019 1.22,1.25 H 567.7 c 0.40317,0 0.73,-0.32683 0.73,-0.73 v -16.98 c 0,-0.5081 0.41638,-0.92 0.93,-0.92 h 19.56 c 0.29113,1.5e-4 0.52559,-0.24332 0.52,-0.54 l -0.45,-18.73 c 0.0467,-0.0667 0.0967,-0.13 0.15,-0.19 l 20.31,0.39 c 0.62411,0.018 1.13323,-0.50029 1.11,-1.13 l -0.68,-17.27 c -0.0171,-0.42035 0.3193,-0.77035 0.74,-0.77 h 18.21 c 0.83395,0 1.51,-0.67605 1.51,-1.51 V 238.96 c 0,-0.53019 -0.42981,-0.96 -0.96,-0.96 h -18.93 c -0.19882,0 -0.36,-0.16118 -0.36,-0.36 v -17.3 c 0,-0.51602 -0.41971,-0.93122 -0.93,-0.92 l -19.95,0.28 c 0.0267,-0.20667 0.0533,-0.41667 0.08,-0.63 l 0.29,-17.57 c 0.007,-0.45471 -0.34193,-0.83821 -0.8,-0.88 -5.77,-0.49 -10.62,-0.09 -19.38,0.53 -0.38938,0.0291 -0.72109,-0.27953 -0.72,-0.67 v -17.49 c 0,-0.22091 -0.17909,-0.4 -0.4,-0.4 H 456.72 c -0.22644,0 -0.41,0.18356 -0.41,0.41 v 17.02 c 0,0.42526 -0.34474,0.77 -0.77,0.77 h -19.43 c -0.72,0 -1.08,0.36333 -1.08,1.09 v 16.55 c 0,0.50258 -0.40742,0.91 -0.91,0.91 h -18.6 c -0.53572,0 -0.97,0.43428 -0.97,0.97 v 16.9 c 0,0.5 -0.25,0.75 -0.75,0.75 h -18.56 c -0.54676,0 -0.99,0.44772 -0.99,1 v 129.25 c 0,0.73454 0.59546,1.33 1.33,1.33 h 18.57 c 0.13807,0 0.25,0.11193 0.25,0.25 v 18.24 c 0,0.34667 0.17333,0.52 0.52,0.52 h 18.69 c 0.61304,0 1.11,0.49696 1.11,1.11 v 17 c 0,0.82667 0.41,1.26667 1.23,1.32 6.6,0.43333 13.31333,0.32333 20.14,-0.33 z M 328.75,188.34 c -5.18,0.0133 -8.15667,2.47333 -8.93,7.38 -0.45333,2.86667 -0.41667,5.72667 0.11,8.58 0.77333,4.20667 3.52667,6.69333 8.26,7.46 18.49333,0.13333 36.92,0.19333 55.28,0.18 1.96,0 4.02333,-0.87 6.19,-2.61 1.49333,-1.2 2.36333,-3.04333 2.61,-5.53 0.29333,-2.94 0.33667,-5.30667 0.13,-7.1 -0.65,-5.75 -4.31,-9.06 -10.12,-9.07 -11.16667,-0.0267 -25.30333,-0.0167 -42.41,0.03 -3.95333,0.0133 -7.66,0.24 -11.12,0.68 z m 424.665,55.83125 c -4.24875,0.1725 -10.505,1.16875 -11.005,7.07875 -0.43,5.12 -1.09,12.54 2.59,15.96 1.24667,1.16 3.23,1.93 5.95,2.31 3.62,0.5 11.52,0.9 14.33,-1.83 1.11333,-1.08 1.69333,-2.72667 1.74,-4.94 0.08,-3.8 0.0667,-6.23 -0.04,-7.29 -0.7425,-5.01125 -3.83875,-10.995 -5.66,-11.50625 -2.26042,0.0912 -4.65583,0.34083 -7.905,0.2175 z M 266.62,386.98 c 11.95333,0.35333 19.99333,0.46333 24.12,0.33 4.57333,-0.14 7.32667,-2.06333 8.26,-5.77 0.27333,-1.1 0.46,-3.60333 0.56,-7.51 0.06,-2.51333 -0.03,-5.02667 -0.27,-7.54 -0.33333,-3.45333 -1.76333,-5.90667 -4.29,-7.36 -1.49333,-0.86 -4.02667,-1.28667 -7.6,-1.28 -7.31333,0.0133 -14.57333,0 -21.78,-0.04 -1.88667,-0.06 -3.72667,-0.0167 -5.52,0.13 -1.79333,0.14667 -3.24,0.67 -4.34,1.57 -1.38667,1.14 -2.21,2.57667 -2.47,4.31 -0.36,2.38667 -0.39667,7.29 -0.11,14.71 0.1,2.47333 0.49333,4.25667 1.18,5.35 2.54,4.03 7.66,3.69 12.26,3.1 z"
     id="path343"
     sodipodi:nodetypes="cccccccccccccccscccccccccccccsccccccccccccccccccccccccccccccccccccccccccccccccccccccccccccccccccccccccccccccccccccccccccccssssccccccccssssssccccccccsssssssssssssssssssssssssccccccccccccccccccscccccccccccscccccc" />
  <path
     fill="#fdffe9"
     d="m 686.26,168.17 c 0.10333,9.34917 0.21917,17.66583 0.16,27.2 -23.84667,0.0733 -40.56667,0.03 -50.16,-0.13 -6.52,-0.11 -9.74,-4.77 -10.24,-11.03 -0.47,-5.93 0.36,-13.19 6.39,-15.37 1.33333,-0.48667 3.60667,-0.73667 6.82,-0.75 15.13333,-0.0733 30.81,-0.0467 47.03,0.08 z"
     id="path344"
     sodipodi:nodetypes="ccccccc" />
  <path
     fill="#b6f2eb"
     d="m 686.42,195.37 c -0.31583,-9.40917 -0.36917,-17.66333 -0.16,-27.2 7.56667,-0.8 12.25,1.58 14.05,7.14 0.52,1.59333 0.77333,3.91667 0.76,6.97 -0.007,2.98667 -0.26667,5.31667 -0.78,6.99 -0.82,2.64 -2.66667,4.37667 -5.54,5.21 -2.83333,0.82 -5.61,1.11667 -8.33,0.89 z"
     id="path345"
     sodipodi:nodetypes="ccccccc" />
  <path
     fill="#68dae9"
     d="   M 589.29 219.07   Q 581.50 219.99 578.50 219.70   Q 573.89 219.26 569.80 219.37   A 0.93 0.93 0.0 0 1 568.85 218.44   L 568.85 201.99   A 1.12 1.12 0.0 0 0 567.73 200.87   L 456.92 200.87   A 0.71 0.71 0.0 0 0 456.21 201.58   L 456.21 218.88   Q 456.21 219.45 455.65 219.45   L 435.93 219.45   A 0.87 0.87 0.0 0 0 435.06 220.32   L 435.06 236.24   Q 435.06 238.02 433.29 238.02   L 415.22 238.02   A 0.99 0.99 0.0 0 0 414.23 239.01   L 414.23 368.23   A 1.07 1.07 0.0 0 0 415.30 369.30   L 433.92 369.30   A 1.11 1.11 0.0 0 1 435.03 370.41   L 435.03 387.78   A 0.96 0.96 0.0 0 0 435.99 388.74   L 455.58 388.74   A 0.55 0.55 0.0 0 1 456.13 389.29   L 456.09 407.65   Q 445.85 408.63 435.95 407.98   Q 434.72 407.90 434.72 406.66   L 434.72 389.66   A 1.11 1.11 0.0 0 0 433.61 388.55   L 414.92 388.55   Q 414.40 388.55 414.40 388.03   L 414.40 369.79   A 0.25 0.25 0.0 0 0 414.15 369.54   L 395.58 369.54   A 1.33 1.33 0.0 0 1 394.25 368.21   L 394.25 238.96   A 1.00 0.99 -90.0 0 1 395.24 237.96   L 413.80 237.96   Q 414.55 237.96 414.55 237.21   L 414.55 220.31   A 0.97 0.97 0.0 0 1 415.52 219.34   L 434.12 219.34   A 0.91 0.91 0.0 0 0 435.03 218.43   L 435.03 201.88   Q 435.03 200.79 436.11 200.79   L 455.54 200.79   A 0.77 0.77 0.0 0 0 456.31 200.02   L 456.31 183.00   A 0.41 0.41 0.0 0 1 456.72 182.59   L 568.28 182.59   A 0.40 0.40 0.0 0 1 568.68 182.99   L 568.68 200.48   A 0.67 0.67 0.0 0 0 569.40 201.15   C 578.16 200.53 583.01 200.13 588.78 200.62   A 0.88 0.87 2.8 0 1 589.58 201.50   L 589.29 219.07   Z"
     id="path346" />
  <path
     fill="#fdffe9"
     d="m 328.19,211.76 c 0.47845,-7.73156 0.36956,-16.23149 0.56,-23.42 3.46,-0.44 7.16667,-0.66667 11.12,-0.68 17.10667,-0.0467 31.24333,-0.0567 42.41,-0.03 5.81,0.01 9.47,3.32 10.12,9.07 0.20667,1.79333 0.16333,4.16 -0.13,7.1 -0.24667,2.48667 -1.11667,4.33 -2.61,5.53 -2.16667,1.74 -4.23,2.61 -6.19,2.61 -18.36,0.0133 -36.78667,-0.0467 -55.28,-0.18 z"
     id="path347"
     sodipodi:nodetypes="ccccccccc" />
  <path
     fill="#b6f2eb"
     d="m 328.75,188.34 c 0.0213,5.12554 -0.0193,8.97053 -0.0774,13.17016 0.0249,1.83468 0.14397,5.3765 0.0477,10.33823 -4.91011,-0.50151 -8.12749,-3.18704 -8.79033,-7.54839 -0.52667,-2.85333 -0.56333,-5.71333 -0.11,-8.58 0.77333,-4.90667 3.75,-7.36667 8.93,-7.38 z"
     id="path348"
     sodipodi:nodetypes="ccccccc" />
  <path
     fill="#fdffe9"
     d="   M 234.33 196.95   L 234.66 239.82   A 1.16 1.16 0.0 0 0 235.82 240.97   L 250.83 240.97   A 1.03 1.03 0.0 0 1 251.86 242.00   Q 251.99 278.91 252.06 294.00   Q 252.09 299.63 251.60 305.18   A 2.01 2.01 0.0 0 1 249.90 306.99   Q 247.24 307.38 244.25 307.38   Q 143.01 307.46 134.97 307.47   C 130.20 307.48 125.74 307.05 121.13 306.92   A 1.19 1.19 0.0 0 0 119.90 308.10   L 119.78 329.15   C 115.34 329.24 109.72 329.52 106.21 327.27   Q 100.14 323.37 99.98 315.26   Q 99.75 303.13 99.95 274.50   Q 100.00 268.23 100.90 265.93   C 103.43 259.48 109.03 258.15 115.56 258.17   Q 129.46 258.21 149.05 258.18   Q 153.81 258.18 153.66 253.54   Q 153.44 247.10 153.37 235.49   Q 153.34 230.73 156.55 227.53   Q 159.97 224.13 165.56 224.34   Q 180.55 224.90 193.11 224.67   Q 195.88 224.62 195.91 221.85   Q 195.96 217.49 195.87 211.38   Q 195.79 205.44 197.16 202.76   Q 199.46 198.28 204.47 197.24   Q 205.84 196.95 213.06 196.91   Q 223.66 196.85 234.33 196.95   Z"
     id="path349" />
  <path
     fill="#b6f2eb"
     d="   M 253.04 211.16   L 252.88 223.29   Q 252.87 223.81 253.37 223.95   Q 255.55 224.53 257.75 224.47   Q 270.29 224.09 282.75 224.48   Q 287.16 224.62 288.42 224.83   Q 291.55 225.33 293.47 227.15   Q 296.92 230.42 296.90 234.13   Q 296.88 238.67 296.79 255.20   Q 296.77 258.79 300.36 258.56   Q 307.10 258.13 314.25 258.21   Q 325.65 258.34 337.99 258.30   Q 343.87 258.29 346.00 259.28   Q 350.56 261.39 352.19 265.05   Q 353.58 268.20 353.59 273.00   Q 353.61 309.49 353.46 315.79   Q 353.18 327.46 341.20 328.90   Q 338.33 329.25 333.00 329.24   Q 245.76 329.13 158.86 329.09   L 119.78 329.15   L 119.90 308.10   A 1.19 1.19 0.0 0 1 121.13 306.92   C 125.74 307.05 130.20 307.48 134.97 307.47   Q 143.01 307.46 244.25 307.38   Q 247.24 307.38 249.90 306.99   A 2.01 2.01 0.0 0 0 251.60 305.18   Q 252.09 299.63 252.06 294.00   Q 251.99 278.91 251.86 242.00   A 1.03 1.03 0.0 0 0 250.83 240.97   L 235.82 240.97   A 1.16 1.16 0.0 0 1 234.66 239.82   L 234.33 196.95   C 237.23 196.65 242.74 196.08 245.98 197.74   Q 253.64 201.66 253.04 211.16   Z"
     id="path350" />
  <path
     fill="#9cebeb"
     d="   M 589.29 219.07   Q 589.25 219.39 589.21 219.70   L 589.61 236.90   A 1.26 1.26 0.0 0 0 590.87 238.13   L 609.30 238.13   A 0.86 0.85 -0.0 0 1 610.16 238.98   L 610.16 369.09   Q 610.16 369.59 609.65 369.59   L 590.31 369.59   A 1.23 1.22 89.8 0 0 589.09 370.83   L 589.14 388.48   Q 589.06 388.57 588.99 388.67   L 569.23 388.43   A 0.77 0.76 0.0 0 0 568.46 389.19   L 568.46 407.06   A 0.90 0.90 0.0 0 1 567.56 407.96   L 456.53 408.05   L 456.09 407.65   L 456.13 389.29   A 0.55 0.55 0.0 0 0 455.58 388.74   L 435.99 388.74   A 0.96 0.96 0.0 0 1 435.03 387.78   L 435.03 370.41   A 1.11 1.11 0.0 0 0 433.92 369.30   L 415.30 369.30   A 1.07 1.07 0.0 0 1 414.23 368.23   L 414.23 239.01   A 0.99 0.99 0.0 0 1 415.22 238.02   L 433.29 238.02   Q 435.06 238.02 435.06 236.24   L 435.06 220.32   A 0.87 0.87 0.0 0 1 435.93 219.45   L 455.65 219.45   Q 456.21 219.45 456.21 218.88   L 456.21 201.58   A 0.71 0.71 0.0 0 1 456.92 200.87   L 567.73 200.87   A 1.12 1.12 0.0 0 1 568.85 201.99   L 568.85 218.44   A 0.93 0.93 0.0 0 0 569.80 219.37   Q 573.89 219.26 578.50 219.70   Q 581.50 219.99 589.29 219.07   Z   M 457.03 219.70   Q 456.52 219.70 456.52 220.20   L 456.52 254.74   A 1.42 1.42 0.0 0 1 455.10 256.16   L 435.01 256.16   Q 433.68 256.16 433.68 257.49   L 433.68 349.83   Q 433.68 350.88 434.72 350.88   L 455.60 350.88   A 0.69 0.69 0.0 0 1 456.29 351.57   L 456.29 386.12   A 1.81 1.80 -0.0 0 0 458.10 387.92   L 566.93 387.92   A 1.36 1.35 0.0 0 0 568.29 386.57   L 568.29 351.73   A 0.90 0.90 0.0 0 1 569.19 350.83   L 589.35 350.83   A 1.36 1.36 0.0 0 0 590.71 349.47   L 590.71 257.21   A 1.08 1.08 0.0 0 0 589.63 256.13   L 569.35 256.13   A 1.06 1.05 90.0 0 1 568.30 255.07   L 568.30 220.64   A 0.94 0.94 0.0 0 0 567.36 219.70   L 457.03 219.70   Z"
     id="path351" />
  <path
     fill="#fdffe9"
     d="   M 457.03 219.70   L 567.36 219.70   A 0.94 0.94 0.0 0 1 568.30 220.64   L 568.30 255.07   A 1.06 1.05 -90.0 0 0 569.35 256.13   L 589.63 256.13   A 1.08 1.08 0.0 0 1 590.71 257.21   L 590.71 349.47   A 1.36 1.36 0.0 0 1 589.35 350.83   L 569.19 350.83   A 0.90 0.90 0.0 0 0 568.29 351.73   L 568.29 386.57   A 1.36 1.35 0.0 0 1 566.93 387.92   L 458.10 387.92   A 1.81 1.80 -0.0 0 1 456.29 386.12   L 456.29 351.57   A 0.69 0.69 0.0 0 0 455.60 350.88   L 434.72 350.88   Q 433.68 350.88 433.68 349.83   L 433.68 257.49   Q 433.68 256.16 435.01 256.16   L 455.10 256.16   A 1.42 1.42 0.0 0 0 456.52 254.74   L 456.52 220.20   Q 456.52 219.70 457.03 219.70   Z"
     id="path352" />
  <path
     fill="#68dae9"
     d="   M 589.14 388.48   L 589.09 370.83   A 1.23 1.22 89.8 0 1 590.31 369.59   L 609.65 369.59   Q 610.16 369.59 610.16 369.09   L 610.16 238.98   A 0.86 0.85 0.0 0 0 609.30 238.13   L 590.87 238.13   A 1.26 1.26 0.0 0 1 589.61 236.90   L 589.21 219.70   L 609.16 219.42   A 0.92 0.91 89.4 0 1 610.09 220.34   L 610.09 237.64   A 0.36 0.36 0.0 0 0 610.45 238.00   L 629.38 238.00   A 0.96 0.96 0.0 0 1 630.34 238.96   L 630.34 368.19   A 1.51 1.51 0.0 0 1 628.83 369.70   L 610.62 369.70   A 0.74 0.74 0.0 0 0 609.88 370.47   L 610.56 387.74   A 1.09 1.08 89.7 0 1 609.45 388.87   L 589.14 388.48   Z"
     id="path353" />
  <path
     fill="#eef9ee"
     d="m 766.98,255.46 c -4.32041,1.18106 -10.03559,2.99599 -13.14559,-0.084 -0.14966,-0.92572 -1.252,-2.67852 -1.32534,-4.29185 -0.13333,-2.87333 -0.0724,-4.51747 0.78093,-7.44414 2.77804,0.0109 5.67713,0.0842 7.99875,0.12625 6.44625,0.51125 5.6675,6.52625 5.69125,11.69375 z"
     id="path354"
     sodipodi:nodetypes="ccccccc" />
  <path
     fill="#b6f2eb"
     d="m 753.29,243.64 c -0.15656,3.42374 0.18221,6.17626 0.31561,9.04959 0.0804,0.95772 0.0251,3.19863 1.18928,3.17663 2.98538,-0.0564 7.7556,-0.13824 12.18514,-0.40622 0.10667,1.06 0.12,3.49 0.04,7.29 -0.0467,2.21333 -0.62667,3.86 -1.74,4.94 -2.81,2.73 -10.71,2.33 -14.33,1.83 -2.72,-0.38 -4.70333,-1.15 -5.95,-2.31 -3.68,-3.42 -3.02,-10.84 -2.59,-15.96 0.5,-5.91 5.6,-8 10.88,-7.61 z"
     id="path355"
     sodipodi:nodetypes="ccscscccccc" />
  <path
     fill="#b6f2eb"
     d="m 825.94,278.59 c 10.6,-0.0467 21.12,-0.0433 31.56,0.01 5.97333,0.0267 9.82667,2.47667 11.56,7.35 0.44667,1.25333 0.64667,4.35333 0.6,9.3 -0.0533,5.36 -0.0333,11.61667 0.06,18.77 0.0133,0.93333 0.14333,1.86667 0.39,2.8 0.0867,0.32 0.29667,0.49333 0.63,0.52 1.58667,0.12667 2.84,0.18667 3.76,0.18 20.34667,-0.11333 32.59667,-0.13 36.75,-0.05 5.71333,0.11333 9.66667,2.84667 11.86,8.2 0.73333,1.78667 1.07,4.48 1.01,8.08 -0.10667,6.48 -0.19667,20.58 -0.27,42.3 -0.0133,3.94667 -0.36,6.70333 -1.04,8.27 -1.18667,2.74667 -3.31,4.78667 -6.37,6.12 -1.38667,0.6 -3.45,0.92667 -6.19,0.98 -11.40667,0.23333 -22.80667,0.37333 -34.2,0.42 -46.77333,-0.0333 -93.66499,-0.44854 -140.42499,-0.40187 -1.67334,0 -2.97188,-0.034 -4.00501,-0.008 l 0.4,-19.19 c 0.0217,-0.88466 0.74965,-1.5904 1.64,-1.59 h 88.89 c 1.29289,0.002 2.36084,-1.01364 2.43,-2.31 0.0867,-1.73333 0.12667,-4.11333 0.12,-7.14 -0.0533,-27.35333 -0.0133,-49.08667 0.12,-65.2 0.0333,-4.09333 -0.20333,-9.78333 -0.71,-17.07 z"
     id="path356"
     sodipodi:nodetypes="cccccccccccscccccccccccccc" />
  <path
     fill="#fdffe9"
     d="   M 824.51 278.93   Q 825.27 289.86 825.22 296.00   Q 825.02 320.17 825.10 361.20   Q 825.11 365.74 824.98 368.34   A 2.44 2.43 -88.5 0 1 822.55 370.65   L 733.66 370.65   A 1.64 1.63 0.7 0 0 732.02 372.24   L 731.62 391.43   Q 709.77 391.64 688.75 391.56   Q 687.72 391.55 685.43 391.08   Q 683.65 390.72 682.30 389.95   Q 676.15 386.49 676.16 377.52   Q 676.19 356.23 676.17 349.51   Q 676.15 342.80 682.30 339.54   Q 684.93 338.14 690.52 338.24   Q 709.79 338.57 726.05 338.32   A 3.16 3.16 0.0 0 0 729.16 335.13   Q 729.15 333.48 729.12 329.34   Q 729.09 325.58 729.84 323.67   Q 731.35 319.79 735.21 318.35   Q 737.24 317.59 742.27 317.59   Q 759.84 317.61 768.75 317.43   C 773.17 317.34 773.72 315.64 773.67 311.52   Q 773.51 296.70 773.62 289.90   Q 773.64 288.15 774.32 285.95   C 775.64 281.62 781.09 278.68 785.00 278.73   Q 804.38 278.95 824.51 278.93   Z"
     id="path357" />
  <path
     fill="#fdffe9"
     d="M 266.63094,357.68294 266.62,386.98 c -4.6,0.59 -9.72,0.93 -12.26,-3.1 -0.68667,-1.09333 -1.08,-2.87667 -1.18,-5.35 -0.28667,-7.42 -0.25,-12.32333 0.11,-14.71 0.26,-1.73333 1.08333,-3.17 2.47,-4.31 1.1,-0.9 2.54667,-1.42333 4.34,-1.57 1.79333,-0.14667 4.6719,-0.27839 6.53094,-0.25706 z"
     id="path358"
     sodipodi:nodetypes="ccccccsc" />
  <path
     fill="#b6f2eb"
     d="m 266.62,386.98 0,-29.295 c 7.20667,0.04 13.46667,0.17833 20.78,0.165 3.57333,-0.007 6.10667,0.42 7.6,1.28 2.52667,1.45333 3.95667,3.90667 4.29,7.36 0.24,2.51333 0.33,5.02667 0.27,7.54 -0.1,3.90667 -0.28667,6.41 -0.56,7.51 -0.93333,3.70667 -3.68667,5.63 -8.26,5.77 -4.12667,0.13333 -12.16667,0.0233 -24.12,-0.33 z"
     id="path359"
     sodipodi:nodetypes="ccccccccc" />
  <path
     fill="#68dae9"
     d="   M 588.99 388.67   L 589.44 407.40   A 0.53 0.52 89.5 0 1 588.92 407.94   L 569.36 407.94   A 0.93 0.92 -0.0 0 0 568.43 408.86   L 568.43 425.84   A 0.73 0.73 0.0 0 1 567.70 426.57   L 457.17 426.57   A 1.22 1.21 0.9 0 1 455.95 425.32   L 456.53 408.05   L 567.56 407.96   A 0.90 0.90 0.0 0 0 568.46 407.06   L 568.46 389.19   A 0.77 0.76 -0.0 0 1 569.23 388.43   L 588.99 388.67   Z"
     id="path360" />
  <path
     fill="#fdffe9"
     d="m 173.87,415.89 c 1.04,10.51333 1.29,20.93333 0.75,31.26 -0.06,1.17333 -0.34333,2.02 -0.85,2.54 -0.68667,0.7 -1.61333,1.05333 -2.78,1.06 -14.11333,0.0533 -23.8,0.0867 -29.06,0.1 -4.56,0.02 -11.11,-0.33 -16.76,-0.14 -1.42842,0.0485 -2.56101,1.22536 -2.56,2.66 v 11.13 c -0.002,1.80245 -1.04653,2.75493 -2.94,2.78812 l -11.73581,-0.0205 c -0.0333,-5.95333 -0.0775,-14.84095 -0.0442,-21.16762 0.0133,-2.78667 0.34,-4.80667 0.98,-6.06 1.04667,-2.04 2.55,-3.59333 4.51,-4.66 1.43333,-0.78 4.08333,-1.18333 7.95,-1.21 2.64667,-0.0133 5.35667,0 8.13,0.04 3.64,0.42667 7.32667,0.34 11.06,-0.26 0.70515,-0.10884 1.23622,-0.70264 1.27,-1.42 0.16,-3.73 -0.19,-7.65 1.38,-10.88 2.26,-4.64 7.19,-5.9 12.1,-5.71 6.28,0.24667 12.48,0.23 18.6,-0.05 z"
     id="path361"
     sodipodi:nodetypes="ccccccccccccsccccccc" />
  <path
     fill="#b6f2eb"
     d="m 270.35,445.81 -0.04,35.4 c -2.86667,0.36 -5.63667,0.53 -8.31,0.51 -53.99333,-0.32667 -102.41,-0.33333 -145.25,-0.02 -9.15,0.06 -9.17934,-7.09254 -8.81581,-14.52835 l 11.31393,0.0383 c 2.66128,0.009 3.34418,-1.22005 3.36188,-2.71 v -11.13 c -0.001,-1.43464 1.13158,-2.61146 2.56,-2.66 5.65,-0.19 12.2,0.16 16.76,0.14 5.26,-0.0133 14.94667,-0.0467 29.06,-0.1 1.16667,-0.007 2.09333,-0.36 2.78,-1.06 0.50667,-0.52 0.79,-1.36667 0.85,-2.54 0.54,-10.32667 0.29,-20.74667 -0.75,-31.26 3.91333,-0.14667 7.83667,-0.15 11.77,-0.01 1.68,0.06 3.58667,0.05 5.72,-0.03 1.44,-0.0533 3.36333,-0.07 5.77,-0.05 2.74,0.0133 4.82333,0.61667 6.25,1.81 2.38,1.98667 3.66,4.50667 3.84,7.56 0.14667,2.35333 0.24,4.43 0.28,6.23 0.06,2.24667 1.27,3.31 3.63,3.19 8.24667,-0.42 12.87333,-0.54333 13.88,-0.37 5.62,0.97 6.93,4.99 7.27,10.03 0.0373,0.62832 0.56529,1.11675 1.2,1.11 9.58,-0.12 19.17,-0.16667 28.77,-0.14 2.64667,0.0133 5.34667,0.21 8.1,0.59 z"
     id="path362"
     sodipodi:nodetypes="cccccscccccccccccccccccccc" />
  <path
     fill="#b6f2eb"
     d="m 881.6,419.34 c 1.4,1.89333 2.17667,3.8 2.33,5.72 0.19333,2.48667 0.40667,5.06333 0.64,7.73 0.0845,0.95586 0.89617,1.67978 1.85,1.65 7.24667,-0.21333 13.65333,-0.32 19.22,-0.32 4.50667,0 7.67,1.86333 9.49,5.59 0.77333,1.57333 1.13333,4.81667 1.08,9.73 -0.02,1.72667 0.0267,9.32667 0.14,22.8 0.0467,6.24667 -2.96333,9.36333 -9.03,9.35 -41.1,-0.08 -78.01667,-0.02 -110.75,0.18 -4.38667,0.0267 -11.07667,0.0167 -20.07,-0.03 -38.36,-0.18667 -76.76333,-0.30333 -115.21,-0.35 -0.74,-2.40667 -1.57,-4.22333 -2.49,-5.45 -1.38667,-1.86 -3.48667,-2.78333 -6.3,-2.77 -4.56667,0.02 -9.13667,0.0133 -13.71,-0.02 3.26,-0.04 6.51667,-0.11 9.77,-0.21 2.28667,-0.0667 4.47,-0.48 6.55,-1.24 16.51,-6 32.94,-12 48.55,-20.54 0.12,-0.0667 0.11,-0.1 -0.03,-0.1 l -24.67,-0.16 27.28,-0.29 c 0.7787,-0.006 1.4055,-0.63682 1.4,-1.41 l -0.1,-15 c 8.99333,-0.0933 17.98333,-0.19667 26.97,-0.31 4.51333,-0.06 7.49333,1.78333 8.94,5.53 0.54,1.4 0.95125,4.58437 1.03313,6.24875 0.16301,0.67945 0.82363,-0.0624 1.52687,-0.0687 19.84667,-0.1 39.78,-0.16333 59.8,-0.19 1.64667,-0.007 4.26333,0.385 4.35,-1.075 l -0.56,4.115 c 0.13631,0.60177 0.57776,1.08509 1.16,1.27 1.74667,0.56667 3.58667,0.85 5.52,0.85 19.56667,-0.0467 35.52333,0.0633 47.87,0.33 0.57292,0.0146 4.18093,-2.66509 4.21128,-3.89452 0.32,-10.9 -0.002,-18.77934 0.007,-25.84773 -0.0425,-1.59925 0.33527,-3.36775 0.38194,-4.90775 4.42708,-0.0762 10.54967,0.88848 12.85,3.09 5e-5,5e-5 -2.2e-4,-5e-5 -2.2e-4,-5e-5 z"
     id="path364"
     sodipodi:nodetypes="ccccsccccsccccccccccccccccccccccccccsc" />
  <path
     fill="#9cebeb"
     d="m 665.95,440.41 c 0.0533,1.84 0.0833,3.62667 0.09,5.36 0.007,2.83333 1.41,4.36 4.21,4.58 2.91333,0.22667 5.81667,0.41 8.71,0.55 l 29.795,-0.37125 c 7.29946,0.17678 25.53654,0.0528 32.17608,0.0469 3.64096,-0.0244 3.52649,-3.49475 3.49744,-5.53946 3.62989,0.0196 56.45937,0.332 65.11896,0.36664 2.71635,0.0109 52.14526,5.43253 54.73123,5.45565 1.77233,0.0159 39.51707,0.0231 51.92848,-0.0196 -0.004,3.33956 0.0449,9.22307 0.0535,13.28215 0.004,1.94838 0.10252,6.68671 0.0732,8.95497 -0.074,5.72625 0.0125,8.44104 -8.18548,8.51524 -3.49132,0.0742 -4.93807,-0.008 -6.62582,-0.0129 -6.34583,-0.0191 -105.40661,0.54503 -123.77422,0.397 -23.71833,-0.19115 -113.46244,-0.5721 -116.44123,-0.57549 -0.48625,-1.09937 -10.46047,-8.52687 -12.74714,-8.4602 -3.25333,0.1 -6.51,0.17 -9.77,0.21 -4.92667,-0.0467 -9.85667,-0.04 -14.79,0.02 -1.44667,0.02 -2.69667,0.41667 -3.75,1.19 -0.74667,0.54667 -1.34,1.60333 -1.78,3.17 -0.39333,1.42 -0.19125,2.54375 -0.175,3.87125 -2.37875,0.0242 -7.72958,0.13208 -9.83375,0.13625 -0.78,-1.76 -0.40958,-3.31417 -1.07625,-5.2875 -0.68,-2.02 -0.925,-2.56 -2.695,-2.92 -0.93333,-0.19333 -2.58,-0.28667 -4.94,-0.28 -42.50667,0.08 -85.17333,0.10333 -128,0.07 -1.86667,-0.007 -16.62,-0.003 -44.26,0.01 -3.88667,0 -6.44,1.83 -7.66,5.49 -0.83333,2.49333 -0.36667,5.51333 1.4,9.06 -4.63333,-0.14 -9.12667,-0.22 -13.48,-0.24 -0.9,-0.007 -1.80667,0.11667 -2.72,0.37 l -0.36,-42.51 259.12,-0.13 c 0.86531,0.002 1.6,-0.64304 1.72,-1.51 z"
     id="path367"
     sodipodi:nodetypes="cccccccsscsscssccccccccccccccccccccc" />
  <path
     fill="#fdffe9"
     d="m 868.76172,416.24219 c -0.16254,5.3601 0.10178,18.29269 -0.0134,30.2706 -0.0396,4.11994 -2.08165,4.38078 -4.5983,4.38721 -12.44234,0.0318 -28.30333,-0.37667 -47.87,-0.33 -1.93333,0 -2.55882,-0.0159 -4.395,-0.0375 -3.48236,-0.0409 -3.4833,-2.01515 -3.48813,-4.44943 -0.002,-1.00823 -0.005,-1.95395 0.0131,-2.87307 0.0458,-2.30991 1.08333,-4.32667 2.41,-6.1 0.60667,-0.81333 1.46333,-1.44333 2.57,-1.89 1.36667,-0.54667 2.42,-0.83333 3.16,-0.86 4.43333,-0.16 10.35,-0.19667 17.75,-0.11 0.87378,0.007 1.59719,-0.6726 1.64,-1.54 0.23,-4.12 -0.11839,-7.89517 1.08161,-10.81517 1.50667,-3.68667 3.89866,-5.92972 8.13,-5.97 16.94079,-0.16104 16.02335,0.0674 23.61012,0.31736 z"
     id="path363"
     sodipodi:nodetypes="csscsssccccccsc" />
  <path
     fill="#fdffe9"
     d="m 707.54,434.2 0.1,15 c 0.005,0.77318 -0.6213,1.40446 -1.4,1.41 l -27.28,0.29 c -2.89333,-0.14 -5.81229,-0.24521 -8.71,-0.26875 -2.7375,-0.0794 -4.90645,-2.52792 -4.8975,-4.705 -0.007,-1.73333 0.15083,-3.59813 0.5975,-5.51625 1.4,-4.3 4.45667,-6.45333 9.17,-6.46 10.80667,-0.0267 21.61333,0.0567 32.42,0.25 z"
     id="path366"
     sodipodi:nodetypes="ccccccccc" />
  <path
     fill="#fd5e42"
     d="   M 385.57 468.23   L 288.84 468.15   L 288.95 445.72   Q 288.95 445.21 289.46 445.21   L 384.85 445.21   Q 385.40 445.21 385.40 445.76   L 385.57 468.23   Z"
     id="path368"
     style="fill:#c8102e;fill-opacity:1" />
  <path
     fill="#fdffe9"
     d="   M 385.57 468.23   L 385.74 495.09   L 288.79 495.20   L 288.84 468.15   L 385.57 468.23   Z"
     id="path369"
     style="fill:#ffffff;fill-opacity:1" />
  <path
     fill="#fdffe9"
     d="m 607.6,486.78 c -1.03333,0.78 -2.78,1.17 -5.24,1.17 -25.21,0 -50.4,0.14 -75.6,-0.09 -7.64,-0.0667 -16.72667,-0.03 -27.26,0.11 -14.75333,0.19333 -40.84333,0.0967 -78.27,-0.29 -1.76667,-3.54667 -2.23333,-6.56667 -1.4,-9.06 1.22,-3.66 3.77333,-5.49 7.66,-5.49 27.64,-0.0133 42.39333,-0.0167 44.26,-0.01 42.82667,0.0333 85.49333,0.01 128,-0.07 2.36,-0.007 4.00667,0.0867 4.94,0.28 1.77,0.36 2.89,0.65 3.57,2.67 0.16374,3.19578 0.70266,8.44517 -0.66,10.78 z"
     id="path370"
     sodipodi:nodetypes="cscccccccccc" />
  <path
     fill="#fdffe9"
     d="m 638.79,473.15 c 4.57333,0.0333 9.14333,0.04 13.71,0.02 2.81333,-0.0133 4.91333,0.91 6.3,2.77 0.92,1.22667 1.75,3.04333 2.49,5.45 -0.62667,2.39333 -1.75333,4.17333 -3.38,5.34 -1.16667,0.82667 -3.06,1.24 -5.68,1.24 -10.01333,-0.0133 -20.00667,0 -29.98,0.04 -1.94,0.01 -4.08358,-1.29146 -4.12,-3.25 -0.0412,-2.21387 -0.0681,-5.48337 -0.0703,-7.0222 -0.005,-3.17458 1.7887,-4.54809 5.94035,-4.56784 4.93364,-0.0235 9.86333,-0.0667 14.79,-0.02 z"
     id="path371"
     sodipodi:nodetypes="cccccccssscc" />
  <path
     fill="#0082ca"
     d="M 342.98,538.31 288.95892,551.70618 289,537.72 c -0.006,-0.35983 0.29031,-0.65147 0.65,-0.64 16.14667,0.34 32.34667,0.54 48.6,0.6 1.29333,0.007 2.87,0.21667 4.73,0.63 z"
     id="path386"
     sodipodi:nodetypes="cccccc" />
  <path
     d="m 776.5621,510.3684 c -9.55422,-0.21014 -12.93616,-1.19134 -12.97618,4.50104 -0.01,4.69687 -0.76559,13.68135 3.15296,13.67287 5.78477,0.10812 51.34523,2.25355 52.3119,2.16685 2.99,-0.27 8.24745,-4.20676 10.45745,-4.76676 1.4,-0.35332 1.54099,-0.98439 2.94099,-1.12439 0.66667,-0.0733 1.70849,0.39723 3.60849,1.3639 2.02667,1.02667 4.05115,1.86567 6.18448,2.58567 4.87492,0.0206 4.01699,0.0486 7.78711,-0.0566 6.37082,-0.0431 17.19446,-0.24627 22.53515,-0.24807 8.88746,-0.003 8.25499,-2.93955 8.25013,-4.78667 -0.009,-3.58425 0.021,-6.15451 0.006,-8.51606 -0.0222,-3.49562 -11.1251,-3.08929 -15,-3.06055 -6.44499,0.0478 -11.84103,-0.0284 -29.80782,-0.42359 z"
     style="fill:#0670b8"
     id="path466"
     sodipodi:nodetypes="sccccccccssssss" />
  <path
     fill="#008c3e"
     d="m 813.05812,489.60968 c 0.41562,-0.23944 1.27291,-1.03074 1.27958,-0.61774 C 814.22568,493.76946 814.04,501.7 814,512.22 l -0.05,15.98 0.13,41.59 c 8e-5,0.2616 0.005,0.51617 0.0111,0.7721 0.0193,0.89144 0.0518,7.98358 0.0616,9.01451 l 0.0672,7.03089 c -4.75333,1.99333 -11.78635,3.94948 -16.06139,5.34056 C 798.06241,589.43932 798.08,586 798.1,583.48 c 0.17333,-29.55333 0.30333,-59.13333 0.39,-88.74 4.54667,-1.44 8.09063,-2.66823 11.85063,-3.98156 0.96,-0.33 1.83999,-0.75216 2.71749,-1.14876 z"
     id="path373"
     sodipodi:nodetypes="cccccsscccccc" />
  <path
     fill="#59b029"
     d="m 808.15857,491.59166 c -4.16661,1.42847 -5.50995,1.83325 -9.66857,3.14834 -6.11184,-1.90085 -9.98308,-2.96943 -14.62629,-4.55387 5.49333,-2.42 9.18911,-4.37184 12.54209,-6.04789 1.11429,-0.557 2.38001,-0.77892 3.70996,-0.16281 0.44495,0.20613 6.54142,2.37227 14.15892,4.91048 0.19175,0.13339 -0.0744,0.27503 -0.75885,0.58997 -0.8197,0.37716 -4.77516,1.91622 -5.35726,2.11578 z"
     id="path372"
     sodipodi:nodetypes="sccsscss" />
  <path
     fill="#95cb02"
     d="m 798.49,494.74 c -0.0867,29.60667 -0.21667,59.18667 -0.39,88.74 -0.02,2.52 0.0589,5.94811 0.0675,8.45932 -2.31734,0.80182 -2.54414,0.87068 -3.77747,1.21068 -19.97333,5.56 -39.79333,11.24 -59.46,17.04 -10.33312,-3.43467 -17.7813,-5.73893 -26.04,-8.35 -2.09333,-0.54667 -4.94667,-1.42333 -8.56,-2.63 -2.92,-0.98 -5.78,-1.83667 -8.58,-2.57 l 15.35,-26.07 c 22.47078,-8.2186 22.51127,-8.15466 41.18558,-15.87818 11.94942,2.89239 23.8077,6.17673 35.77611,8.98662 L 783.8675,490.1825 c 5.31717,1.80658 8.28845,2.62491 14.6225,4.5575 z"
     id="path374"
     sodipodi:nodetypes="ccccccccccccc" />
  <path
     fill="#0082ca"
     d="   M 385.74 495.09   L 385.89 517.12   Q 385.91 518.64 384.38 518.64   L 289.16 518.64   Q 288.74 518.64 288.74 518.21   L 288.79 495.20   L 385.74 495.09   Z"
     id="path376"
     style="fill:#003da5;fill-opacity:1" />
  <path
     fill="#c3dd00"
     d="m 568.5,505.84 c 23.02,6.04 45.96667,12.35667 68.84,18.95 2.62,0.75333 9.05,2.51667 19.29,5.29 6.98667,1.88667 14.6904,4.12263 21.78904,6.4449 -7.14376,2.97488 -22.48447,7.99109 -31.10904,10.4951 -17.92,5.28 -28.09667,8.30333 -30.53,9.07 -4.27333,1.34667 -8.44,2.62333 -12.5,3.83 -12.42667,3.69333 -21.88667,6.55 -28.38,8.57 -9.02,2.8 -22.17333,6.82333 -39.46,12.07 -2.2,0.66667 -3.89,1.17667 -5.07,1.53 -16.40667,4.90667 -34.56,10.43667 -54.46,16.59 -4.29,1.33 -9.04,2.5 -13.84,3.93 -0.45657,0.1368 -0.94425,0.13331 -1.4,-0.01 -9.30667,-2.94667 -17.50333,-5.6 -24.59,-7.96 -0.55333,-0.18667 -1.95333,-0.50333 -4.2,-0.95 -1.95333,-0.38667 -3.23333,-1.15 -3.84,-2.29 2.68,-0.95333 5.01,-1.26333 6.99,-0.93 12.58,-2.81333 24.93333,-6.53333 37.06,-11.16 4.04,-0.81333 8.04667,-1.88667 12.02,-3.22 4.98667,-1.68 10.41667,-3.34667 16.29,-5 7.27333,-2.04 12.71333,-3.64 16.32,-4.8 4.76667,-1.53333 11.05,-3.46667 18.85,-5.8 17.24667,-5.17333 36.81333,-11.28 58.7,-18.32 0.30453,-0.10125 0.36325,-0.50646 0.1,-0.69 -1.27333,-0.87333 -2.59667,-1.54333 -3.97,-2.01 -1.71333,-0.58667 -3.08667,-1.15333 -4.12,-1.7 -1.55,-0.81 -3.89,-1.44 -5.92,-2.45 -3.19333,-1.59333 -7.02333,-2.89333 -11.49,-3.9 -2.68,-0.6 -6.23,0.66 -8.37,1.31 -21.39333,6.49333 -42.83667,12.83 -64.33,19.01 -9.23333,2.65333 -18.59333,5.52667 -28.08,8.62 -5.42833,-0.95313 -26.41601,-7.44437 -31.09579,-9.04998 -3.32247,-0.74936 -9.78421,-2.68335 -16.42421,-3.99002 -0.9124,-0.17733 -1.85066,-0.12578 -2.73,0.15 -14.55333,4.54 -26.93,8.33667 -37.13,11.39 -3.7,1.11333 -8.89667,2.57 -15.59,4.37 -7.48,2.02 -15.19,4.78 -22.98,6.52 -2.69333,0.60667 -5.15667,1.28667 -7.39,2.04 -4.00667,1.35333 -8.52667,2.72 -13.56,4.1 -0.68,0.18667 -3.33667,1.525 -5.47,1.765 -3.87,0.43 -7.88647,-0.45465 -11.38647,-1.92465 -2.61333,-1.1 -6.34496,-1.78903 -8.63163,-2.50903 C 293.54857,572.23465 289.2,572.735 286.06,571.715 L 270.35266,556.11079 C 341.97044,538.34345 313.66538,545.64944 404.92,520.76 l 29.5,-9.02 c 18.6,3.79333 37.03667,7.32 55.31,10.58 1.62,0.29333 2.95333,0.33 4,0.11 23.12519,-7.4618 42.17393,-13.43757 66.63393,-18.6909 0.61,-0.13 5.54667,1.44814 8.13607,2.1009 z"
     id="path377"
     sodipodi:nodetypes="ccccccsccccccccccccccccccccccccccccccccccccccccccc" />
  <path
     fill="#0670b8"
     d="m 268.60765,557.64072 c -2.24667,0.28 -6.43432,0.54595 -7.38765,0.77928 -13.56,3.37333 -27.09,6.85333 -40.59,10.44 -4.64667,1.24 -7.39708,2.76083 -24.06375,6.6875 -1.39114,0.50875 -10.42114,2.00625 -11.74625,2.7425 -0.22,0.26 -0.33667,0.55667 -0.35,0.89 l -0.0248,6.03 c -3.02667,-0.45333 -5.30517,-0.67667 -6.30517,-0.67 -11.87,0.1 -23.53,0.2 -35.16,-0.04 -6.96,-0.14 -12.96667,-0.02 -18.02,0.36 -6.91,0.52 -9.4,-4.98 -9.85,-11.21 -0.32,-4.41333 -0.13667,-9.75333 0.55,-16.02 0.54,-4.97 3.28,-6.58 8.01,-7.38 2.94667,-0.5 6.54,-0.71333 10.78,-0.64 6.76,0.12667 10.16667,0.18667 10.22,0.18 6.98,-0.22667 15.22667,-0.26667 24.74,-0.12 3.75333,0.06 7.62,0.01 11.6,-0.15 12.83848,-0.17615 25.32933,-0.23321 38,-0.02 9.39073,-0.1755 13.03621,-0.23927 19.99,-0.44 3.49333,-0.14 8.57667,-0.19 15.25,-0.15 4.32667,0.02 6.88,-2.05667 7.66,-6.23 0.75,-4.03 0.68,-10.74 -3.72,-12.86 -1.10667,-0.54 -2.93,-0.8 -5.47,-0.78 -5.50667,0.0333 -11.16667,0.06 -16.98,0.08 -11.21439,-0.009 -12.23437,-0.0115 -23.7,-0.2 -29.74,0.0333 -49.29,-0.0233 -58.65,-0.17 -1.88,-0.03 -4.74,0.05 -6.4,-0.61 -4.17333,-1.65333 -5.65,-4.92333 -4.43,-9.81 0.73333,-2.95333 3.08,-4.71333 7.04,-5.28 5.82667,-0.83333 11.82667,-1.25 18,-1.25 10.20667,-0.0133 24.87,-0.0867 43.99,-0.22 5.41,-0.04 12.26,0.55 17.38,0.44 14.93333,-0.30667 23.59333,-0.43667 25.98,-0.39 4.17333,0.0867 8.32,0.43 12.44,1.03 0.54931,0.08 0.95509,0.54987 0.95,1.1 -0.007,6.76 0.18333,13.41667 0.57,19.97 0.0533,0.93333 -0.0133,4.18 -0.2,9.74 -0.16,4.86 -0.0398,8.95532 -0.10235,14.17072 z"
     id="path378"
     sodipodi:nodetypes="cccccccccccccccccccccccccccccccccscccc" />
  <path
     fill="#59b029"
     d="m 560.16415,503.6428 c 0.67972,0.13894 1.50007,0.14778 0.44298,0.43287 -25.13395,8.15726 -51.49587,15.87736 -76.98835,23.8859 -16.10907,-4.99921 -33.35333,-10.40044 -50.47283,-15.82895 C 447.21928,507.72595 469.75,500.83 498.19,492.23 c 3.65,-1.11 6.96995,-1.72226 10.43875,-1.73625 1.2347,-0.005 2.94146,0.14489 5.06544,0.56108 1.20123,0.23538 2.87248,0.64517 4.88581,1.18517 7.68,2.04 9.18315,2.38232 31.74315,8.64899 1.5,0.42 8.28149,2.3432 9.841,2.75381 z"
     id="path375"
     sodipodi:nodetypes="cccccssccc" />
  <path
     fill="#59b029"
     d="m 844.31532,529.81305 c 0.53379,0.29489 0.37331,0.95223 0.38249,1.41097 0.008,0.39748 -0.465,0.2181 -0.94781,0.35598 -5.06667,1.11333 -9.05333,2.27 -11.96,3.47 -7.56938,-2.43805 -13.9745,-4.19291 -14.64,-0.49 l 0.0887,-4.087 c 5.02089,-2.2277 10.34778,-4.5886 15.21133,-5.853 0.66667,-0.0733 1.95,0.37333 3.85,1.34 5.32074,2.34968 5.62457,2.5323 8.01529,3.85305 z"
     id="path380"
     sodipodi:nodetypes="ssccccccs" />
  <path
     fill="#0082ca"
     d="m 817.24953,530.46964 0.13173,4.10354 L 817.1,570.79 c -0.007,0.62667 -0.30667,0.85 -0.9,0.67 l -1.66,-0.49 -0.25,-0.43 c -0.13734,-0.22918 -0.20992,-0.4884 -0.21,-0.75 l -0.12219,-39.32828 z"
     id="path381"
     sodipodi:nodetypes="ccccccccc" />
  <path
     fill="#95cb02"
     d="m 831.79,535.05 0.18,42.2 c 0.0518,3.43799 0.73617,4.37148 -0.62393,4.69293 -3.97862,1.32242 -13.9357,3.88918 -17.37607,4.72707 0,0 0.11053,-13.32013 0.11053,-15.28752 2.6185,0.69531 3.03395,0.76397 3.03395,0.76397 0.002,-0.43859 -0.0211,-1.10475 -0.0145,-1.73145 l 0.15064,-39.94379 c 8.15244,2.62628 9.1228,2.88418 14.53936,4.57879 z"
     id="path382"
     sodipodi:nodetypes="cccccccccc" />
  <path
     fill="#c3dd00"
     d="m 718.96,547.28 29.69721,7.46934 C 725.32026,564.15676 725.35594,564.1889 707.1,570.57 l -210.77,64.54 c -2.08667,0.64 -2.12,1.37333 -0.1,2.2 4.04,1.65333 7.98333,3.15667 11.83,4.51 3.32667,1.17333 7.83667,2.73667 13.53,4.69 1.49,0.52 3.8,0.61 5.03,0.3 2.84667,-0.71333 5.67,-1.51667 8.47,-2.41 3.66667,-1.18 6.47,-2.03667 8.41,-2.57 8.54,-2.37333 16.895,-6.19 25.315,-8.95 17.35618,-7.87159 36.10219,-10.92545 54.275,-16.1 22.695,-7.49448 45.78435,-13.12672 68.66,-20.14 2.8,0.73333 5.66,1.59 8.58,2.57 3.61333,1.20667 6.46667,2.08333 8.56,2.63 8.84919,2.7624 17.05658,5.28198 26.04,8.35 l -220.81,65.46 c -7.61333,-2.22 -15.44667,-4.41 -23.5,-6.57 -4.94,-1.32667 -9.38667,-2.72667 -13.34,-4.2 -4.15333,-1.54667 -8.61667,-3.00333 -13.39,-4.37 -1.16667,-0.33333 -2.43667,-0.91333 -3.81,-1.74 -0.3,-0.18 -0.31333,-0.38333 -0.04,-0.61 2.59,-2.17 6.52,-3.68 9.5,-5.65 4.42,-2.93 8.08,-4.74 13.99,-6.11 0.89333,-0.21333 1.01667,-0.64667 0.37,-1.3 l -3.80291,-1.41643 c -1.17508,-0.43767 -3.66691,-0.9757 -4.58422,-1.32774 C 461.91954,645.3225 450.14,647.69667 436.02,652.13 l -25.83,-7.22 -19.38,-5.89 -19.76,-5.5 -39.24359,-11.24203 c -0.81447,-0.30653 -2.2805,-1.00627 -1.53834,-1.44589 10.10328,-6.08138 22.80008,-12.56294 34.24872,-16.42322 1.34666,-0.43334 5.70654,-2.26051 7.75321,-2.56051 6.96399,1.93692 2.97577,-0.0159 8.65189,2.41267 2.43382,0.85989 4.12635,1.46224 7.11276,2.58185 2.28083,0.81491 3.97202,1.5038 5.66535,2.03713 8.04667,2.54 15.58667,4.82 22.62,6.84 5.48667,1.57333 11.36333,3.40667 17.63,5.5 4.21333,1.40667 10.07,3.31 17.57,5.71 1.07333,0.34 2.29,0.28 3.65,-0.18 1.66667,-0.56 2.79667,-0.89667 3.39,-1.01 18.15913,-5.28675 35.99591,-11.61357 54.09,-17.0975 6.22685,-2.14277 14.23201,-5.26784 20.02,-6.7975 26.63333,-8.4 48.76667,-13.93833 70.9,-20.365 2.50667,-0.72667 4.77,-1.44 6.79,-2.14 3.05333,-1.05333 5.33333,-1.74 6.84,-2.06 2.65333,-0.57333 5.07333,-1.29667 7.26,-2.17 0.32667,-0.12667 2.74333,-0.85667 7.25,-2.19 12.74667,-3.76 23.18,-6.81667 31.3,-9.17 9.80667,-2.84 19.58,-5.80333 29.32,-8.89 4.01333,-1.27333 12.89,-3.8 26.63,-7.58 z"
     id="path389"
     sodipodi:nodetypes="ccccsccccccccccccccccccccsccccccccccccccccccccccccccc" />
  <path
     fill="#59b029"
     d="m 473.09,579.31 c -1.89,-0.95 -3.67,-2.17 -5.53,-2.96 -4.3,-1.81333 -10.03083,-3.43458 -14.3175,-5.30125 -0.37483,-0.16659 -4.56645,-3.7784 -3.50596,-4.23552 5.04507,-2.17466 11.49299,-3.8944 19.35346,-6.45323 9.48667,-3.09333 18.84667,-5.96667 28.08,-8.62 21.49333,-6.18 42.93667,-12.51667 64.33,-19.01 1.89745,-0.57633 4.40042,-1.43073 6.24274,-2.09841 0.84185,-0.3051 2.41152,0.29692 2.62726,0.36653 11.67549,3.76769 19.49571,6.29458 29.125,9.41938 0.26325,0.18354 0.34427,0.32542 0.0397,0.42667 -21.88667,7.04 -45.71807,14.4725 -62.96474,19.64583 -7.8,2.33333 -14.08333,4.26667 -18.85,5.8 -3.60667,1.16 -9.04667,2.76 -16.32,4.8 -5.87333,1.65333 -11.30333,3.32 -16.29,5 -3.97333,1.33333 -7.98,2.40667 -12.02,3.22 z"
     id="path384"
     sodipodi:nodetypes="cccscccsscccccccc" />
  <path
     fill="#59b029"
     d="m 718.96,547.28 c -50.12316,15.08628 -0.75415,0.25574 -87.625,26.0775 -60.12994,18.07883 -124.94194,38.49845 -172.775,52.3825 -0.59333,0.11333 -1.72333,0.45 -3.39,1.01 -1.36,0.46 -2.57667,0.52 -3.65,0.18 -7.5,-2.4 -13.35667,-4.30333 -17.57,-5.71 -6.26667,-2.09333 -12.14333,-3.92667 -17.63,-5.5 -7.03333,-2.02 -14.72958,-4.175 -22.77625,-6.715 -3.62146,-1.18878 -7.1102,-2.41117 -9.87667,-3.52108 -27.02159,8.24304 -27.29361,8.3172 -52.66628,16.0166 -6.34738,-1.36664 -12.68624,-2.99907 -18.5608,-4.54052 5.56,-3.86 11.11333,-7.08667 16.66,-9.68 3.17,-1.48 6.94479,-3.27944 9.55479,-4.70944 3.22,-1.79 5.90521,-3.12056 9.09521,-3.66056 3.07333,-0.52 3.09,-1.11333 0.05,-1.78 -1.62,-0.36 -3.71,-0.75 -5.56,-0.83 -5.10667,-0.22667 -10.20333,-0.58667 -15.29,-1.08 4.2,-0.0733 8.39667,-0.04 12.59,0.1 3.96667,0.14 7.65667,0.65667 11.07,1.55 8.52667,2.24667 17.09,4.60667 25.69,7.08 1.95333,0.56 3.52,0.71667 4.7,0.47 5.87333,-1.25333 15.06333,-3.67333 27.57,-7.26 7.16,-2.06 13.98333,-3.98 20.47,-5.76 1.32151,0.59789 2.76838,1.13734 4.53006,1.93844 2.07394,0.83314 2.95661,1.11489 3.50994,1.30156 7.08667,2.36 15.28333,5.01333 24.59,7.96 0.45575,0.14331 0.94343,0.1468 1.4,0.01 4.8,-1.43 9.55,-2.6 13.84,-3.93 32.95019,-10.21552 66.03746,-19.9817 98.99,-30.19 6.49333,-2.02 15.95333,-4.87667 28.38,-8.57 4.06,-1.20667 8.22667,-2.48333 12.5,-3.83 2.43333,-0.76667 12.61,-3.79 30.53,-9.07 2.14,-0.63333 30.27544,-9.95392 31.10878,-10.50059 z"
     id="path385"
     sodipodi:nodetypes="cccccccccccccccccccccccccccccssccc" />
  <path
     fill="#0670b8"
     d="m 845.01,585.04 -0.08,-6.86 c -0.20022,-6.1143 -1.06886,-11.72747 -0.40219,-17.6408 0.18,-1.63334 -0.18879,-4.03447 -0.108,-6.79496 -0.57359,-1.66981 -4.05676,-4.49929 2.06016,-4.23424 13.24,0.1 26.36,0.15333 39.36,0.16 5.09333,0 9.25667,0.26333 12.49,0.79 7.09,1.16 8.49,7.05 8.74,13.39 0.2,5.01333 0.11333,9.25 -0.26,12.71 -0.41333,3.77333 -2.38333,6.12333 -5.91,7.05 -2.65333,0.69333 -5.11,1.06333 -7.37,1.11 -11.3,0.22 -25.31,0.25667 -42.03,0.11 -1.11333,-0.007 -3.27667,0.0633 -6.49,0.21 z"
     id="path387"
     sodipodi:nodetypes="cccccccccccccc" />
  <path
     fill="#95cb02"
     d="m 469.09,560.36 c -6.1878,2.21002 -10.73908,3.90058 -17.28581,6.21018 -1.62365,0.5728 0.0409,1.29117 0.92675,1.56888 11.29589,3.66478 23.01313,7.29495 28.67156,9.13969 C 469.27583,581.90542 448.61,587.65667 436.03,590.47 l 0.71,-7.73 c 0.0882,-0.94829 -0.66177,-1.76768 -1.62,-1.77 l -145.43,0.2 -19.61508,-3.96539 c 9.72649,-2.62865 13.63379,-4.20562 23.24844,-7.19968 5.52144,2.9006 21.28378,6.83077 23.04227,7.28727 2.92464,-0.64726 2.9154,-0.65596 5.82437,-1.44639 5.03646,-1.36852 9.55333,-2.70248 13.56,-4.05581 2.23333,-0.75333 4.69667,-1.43333 7.39,-2.04 7.79,-1.74 15.5,-4.5 22.98,-6.52 6.69333,-1.8 11.89,-3.25667 15.59,-4.37 10.2,-3.05333 22.57667,-6.85 37.13,-11.39 0.87934,-0.27578 3.4556,-1.20736 4.45406,-1.60033 2.87332,1.27186 12.6933,4.24696 29.30344,9.69283 5.525,1.97958 10.93917,3.2975 16.4925,4.7975 z"
     id="path388"
     sodipodi:nodetypes="cssccccccccscccccccc" />
  <path
     fill="#c3dd00"
     d="m 270.52,579.48 c -7.48,1.78667 -14.89667,3.56333 -22.25,5.33 -5.34,1.28 -15.17,4.38 -22.9,5.49 -1.82667,0.26 -3.69667,0.15 -5.61,-0.33 -6.40531,-1.50771 -13.84483,-3.43601 -18.46053,-4.75062 -0.75694,-0.18752 -1.86415,-0.66608 -2.65437,-1.10829 -4.12,-1.11333 -7.22739,-2.89942 -9.79385,-3.68859 -1.47225,-0.46786 -4.36539,-0.60957 -4.37262,-1.44252 -0.006,-0.69641 0.62966,-0.96064 1.37019,-1.24557 2.39285,-0.9266 23.54268,-5.93436 34.78118,-8.87441 13.5,-3.58667 36.23585,-9.41621 49.79585,-12.78954 z"
     id="path390"
     sodipodi:nodetypes="cccccccscccc" />
  <path
     fill="#59b029"
     d="m 707.1,570.57 30.47699,9.69205 C 693.47665,595.79239 706.02391,591.64473 691.75,596.64 c -49.34772,14.33458 -98.30784,30.35043 -147.4375,45.065 -1.94,0.53333 -5.55583,1.515 -9.2225,2.695 -2.8,0.89333 -5.62333,1.69667 -8.47,2.41 -1.23,0.31 -3.54,0.22 -5.03,-0.3 -13.76462,-4.31286 -24.37031,-7.47091 -27.08357,-8.58128 -2.02,-0.82667 -0.2631,-2.17872 1.82357,-2.81872 z"
     id="path391"
     sodipodi:nodetypes="cccccccscc" />
  <path
     fill="#95cb02"
     d="m 189.24959,580.53396 c 9.28336,2.92834 11.44019,3.59476 17.13173,5.44604 6.45064,1.9522 9.8991,3.06771 13.47243,3.97438 1.91333,0.48 3.68958,0.60562 5.51625,0.34562 21.44613,-7.21842 23.02071,-7.76127 35.54241,-10.85173 8.2294,-2.02912 22.25131,-5.96185 31.3223,-7.57173 L 270.91,593.31 c 0.0267,0.82667 0.45333,1.24667 1.28,1.26 l 17.11,0.17 37.65,0.48 c 5.37445,-0.96784 10.20215,-0.45247 15.30882,-0.2258 1.85,0.08 31.63848,4.73768 30.09137,5.17609 -6.30712,1.78727 -7.44781,2.09762 -12.15375,3.33025 -4.91309,1.28687 -6.03911,1.52205 -13.22033,3.43298 -4.80766,1.27932 -8.35874,2.53175 -15.55358,4.44431 -5.91749,1.57301 -6.71143,1.85811 -18.98253,5.58219 L 312.4818,642.5498 296.63,637.26 c -0.46813,-0.14798 -0.94593,0.19906 -0.95,0.69 v 19.1 c -0.003,0.72915 -0.71864,1.2417 -1.41,1.01 l -17.07,-5.8 c -0.8852,-0.30649 -1.47919,-1.13726 -1.48,-2.07 v -17.14 c 8.5e-4,-0.72211 -0.4572,-1.36499 -1.14,-1.6 l -14.35,-4.88 c -0.88,-0.3 -1.32,0.0167 -1.32,0.95 -0.08,15.15333 -0.0633,28.98 0.05,41.48 0.007,0.34667 0.19333,0.81333 0.56,1.4 -0.36,0.28 -0.76667,0.37 -1.22,0.27 -5.1,-1.13333 -10.70667,-2.96667 -16.82,-5.5 -0.36,-0.15333 -0.7,-0.37333 -1.02,-0.66 l -0.03,-43.28 0.16,-24.03 c 0.005,-0.65697 -0.42358,-1.2367 -1.05,-1.42 l -15.28,-4.42 c -0.64561,-0.18628 -1.28973,0.29805 -1.29,0.97 l -0.06,22.5 -0.26,19.71 c -0.0186,0.79973 -0.79431,1.36161 -1.56,1.13 l -19.17,-5.95 -17.77,-5.31 0.28412,-39.21105 -0.0304,-4.65998 c 0.0133,-0.33333 0.0406,-1.28198 0.0809,-1.53026 0.0804,0.0369 2.84361,0.9306 4.76496,1.52525 z"
     id="path393"
     sodipodi:nodetypes="cccccccccccsssscccccccccccccccccccccccccccccccc" />
  <path
     fill="#007057"
     d="m 844.93,578.18 0.08,6.86 v 37.77 l -19.58,6.01 c -0.32,0.0933 -0.49333,-0.0233 -0.52,-0.35 -0.41333,-6.06667 -0.44667,-11.05667 -0.1,-14.97 0.33333,-3.68 -0.3,-5.21 -1.9,-4.59 -3.59008,1.25979 -8.06824,2.62314 -11.74451,3.47555 -1.24822,0.28942 -3.22019,0.95618 -3.54686,2.57618 0.0252,3.57715 1.21169,6.16445 0.045,8.75111 3.94377,18.16707 -10.8409,15.32655 -19.33,18.02 L 771.93,646.17 c -0.34729,0.11502 -0.70604,-0.14773 -0.71,-0.52 V 626.7 c -2e-5,-0.61214 -0.57315,-1.0534 -1.13,-0.87 l -15.62,5.03 c -0.69816,0.22577 -1.17086,0.87625 -1.17,1.61 v 17.93 c -2e-5,0.93999 -0.61057,1.77292 -1.51,2.06 l -16.53,5.32 c -0.43499,0.14358 -0.88257,-0.18193 -0.88,-0.64 v -18.4 c 3.2e-4,-0.6278 -0.59213,-1.08695 -1.2,-0.93 l -14.57,3.72 c -0.89535,0.22874 -1.52131,1.0359 -1.52,1.96 v 18.95 c -6.4e-4,0.33477 -0.2149,0.62988 -0.53,0.73 l -61.76,19.89 c -0.4827,0.15553 -0.97739,-0.20287 -0.98,-0.71 v -20.47 c 0.004,-0.62484 -0.60805,-1.07032 -1.21,-0.88 l -26.66,8.58 c -1.00667,0.32667 -1.51,1.02 -1.51,2.08 v 19.35 c 0,0.61333 -0.29333,1.01667 -0.88,1.21 l -17.44,5.61 c -0.40348,0.13751 -0.82216,-0.16374 -0.82,-0.59 v -20.38 c 0.003,-0.65129 -0.62913,-1.11676 -1.25,-0.92 l -17.01,5.48 c -0.4902,0.16024 -0.82133,0.61252 -0.82,1.12 l -0.11,45.25 c -0.14,0.30667 -0.41,0.53 -0.81,0.67 -1.54,0.24667 -3.00667,0.70333 -4.4,1.37 -1.74667,0.82667 -3.15667,1.36 -4.23,1.6 -4.40667,0.98667 -8.84,2.20333 -13.3,3.65 l 0.23,-45.38 c 0.008,-0.69427 -0.67178,-1.19113 -1.34,-0.98 l -16.99,5.48 c -0.66839,0.21349 -1.12152,0.8325 -1.12,1.53 v 20.06 c 7.4e-4,0.81546 -0.52431,1.53842 -1.3,1.79 l -28.55,9.28 -0.41,-1.08 0.23,-50.13 220.81,-65.46 c 19.66667,-5.8 39.48667,-11.48 59.46,-17.04 6.65134,-2.15959 12.71445,-4.15421 19.58,-6.48 6.07516,-1.78597 12.17086,-3.50254 18.29,-5.15 z"
     id="path394"
     sodipodi:nodetypes="cccccccsccccccccccccccccccccccccsscccccccccccccccccccccccccc" />
  <path
     fill="#008065"
     d="   M 436.03 590.47   Q 433.06 589.97 429.04 591.40   Q 419.31 594.07 408.57 597.16   Q 389.81 602.54 381.00 604.42   Q 379.23 604.79 376.30 603.95   Q 363.40 600.24 350.61 596.87   Q 345.49 595.53 339.54 595.32   Q 333.25 595.11 326.95 595.22   L 289.30 594.74   L 289.69 581.17   L 435.12 580.97   A 1.63 1.62 2.6 0 1 436.74 582.74   L 436.03 590.47   Z"
     id="path395" />
  <path
     fill="#399e3a"
     d="   M 240.43 621.23   Q 233.33 619.29 226.29 616.70   Q 225.45 616.39 224.57 615.83   Q 223.75 615.30 222.91 614.83   L 222.97 592.33   A 1.01 1.01 0.0 0 1 224.26 591.36   L 239.54 595.78   A 1.47 1.46 -81.6 0 1 240.59 597.20   L 240.43 621.23   Z"
     id="path396" />
  <path
     fill="#0c0b37"
     d="m 845.01,622.81 -0.05,187.58 c 10e-4,1.85681 -1.15102,3.51907 -2.89,4.17 -7.2,2.68667 -14.59333,5.55333 -22.18,8.6 -1.52,0.61 -3.87,0.95 -5.41,1.63 -3.02667,1.31333 -6.53667,2.65 -10.53,4.01 -1.93333,0.66 -5.45667,1.95333 -10.57,3.88 -11.19333,4.23333 -17.38,6.56 -18.56,6.98 -0.51333,0.18667 -1.76667,0.64333 -3.76,1.37 -12.50667,4.58 -34.93333,12.92 -67.28,25.02 -29.16667,10.91333 -45.80333,17.10667 -49.91,18.58 -3.81333,1.36667 -9.56,3.49 -17.24,6.37 -5.07333,1.9 -10.83333,4.00667 -17.28,6.32 -14.95333,5.36 -32.92,11.98667 -53.9,19.88 -8.44,3.18 -24.85333,9.11 -49.24,17.79 -0.93,0.33 -2.42,0.69 -3.62,0.4 -3.04667,-0.72667 -4.82667,-1.18333 -5.34,-1.37 -15.77333,-5.69333 -30.27,-10.94333 -43.49,-15.75 -22.00667,-8.00667 -42.40333,-15.35333 -61.19,-22.04 -6.03333,-2.14667 -12.29667,-4.43333 -18.79,-6.86 -13.95333,-5.20667 -25.48,-9.4 -34.58,-12.58 -0.77333,-0.26667 -4.11667,-1.47667 -10.03,-3.63 -94.24667,-34.34667 -143.62,-52.34 -148.12,-53.98 -2.31333,-0.84667 -3.66932,-1.41736 -5.90932,-2.31736 -0.84226,-0.40163 -0.80578,-0.40423 -0.79648,-1.51787 C 184.23215,806.64281 184.24,797.81 184.2,789.75 183.94667,734.71 183.93,679.59667 184.15,624.41 l 17.77,5.31 0.06,22.93 -0.01,25.73 v 60.34 l -0.06,18.23 -0.04,20.91 0.16,23.74 c 0.007,0.42 0.20667,0.70333 0.6,0.85 l 96.29,35.2 70.13,25.08 20.86,7.64 36.92,13.24 28.03,10.06 58.14,21.02 c 0.35368,0.12708 0.67567,0.008 0.92986,-0.25917 0.0563,-0.15669 0.0525,-0.45305 0.12349,-0.77146 0.31568,0.62058 0.58332,1.08063 1.19665,0.88063 1.91333,-0.62667 10.01,-3.54667 24.29,-8.76 0.62,-0.22667 2.22,-0.76 4.8,-1.6 1.48667,-0.48 3.06,-1.09667 4.72,-1.85 2.82667,-1.27333 5.17333,-2.19667 7.04,-2.77 4.78667,-1.46667 8.52667,-2.73 11.22,-3.79 5.10667,-2.01333 8.8,-3.39333 11.08,-4.14 5.6,-1.81333 9.54667,-3.20667 11.84,-4.18 4.71333,-2 11.36,-4.43 19.94,-7.29 3.09333,-1.03333 8.63333,-3.06333 16.62,-6.09 2.73333,-1.04 8.3,-3.04333 16.7,-6.01 2.52,-0.9 5.36,-2.36 8.04,-3.27 6.24667,-2.13333 12.37667,-4.41667 18.39,-6.85 1.83333,-0.74667 3.84667,-1.36333 6.04,-1.85 2.94,-0.65 5.94,-2.59 8.8,-3.68 3.39333,-1.29333 10.76,-3.97333 22.1,-8.04 2.95333,-1.06 6.98333,-2.57 12.09,-4.53 4.02,-1.54667 8.05667,-3.04333 12.11,-4.49 5.79333,-2.06 11.83667,-4.3 18.13,-6.72 12.02,-4.61333 19.04333,-7.28667 21.07,-8.02 5.79333,-2.08667 11.54667,-4.28333 17.26,-6.59 0.58667,-0.24 2.51667,-0.91667 5.79,-2.03 2.14667,-0.73333 4.06,-1.46333 5.74,-2.19 0.65333,-0.28 2.06333,-0.72 4.23,-1.32 1.44,-0.40667 2.83333,-0.90333 4.18,-1.49 7.08,-3.06667 14.22667,-5.73667 21.44,-8.01 0.66134,-0.20934 1.11059,-0.82048 1.11,-1.51 l -0.06,-98.25 0.01,-48.33 c -0.004,-0.53361 -0.51833,-0.91201 -1.02,-0.75 l -21.33,6.73 c -1.85333,0.28667 -3.21667,0.59333 -4.09,0.92 -12.33333,4.53333 -24.88667,8.66333 -37.66,12.39 -8.51,2.49 -14.32,4.5 -24.24,7.78 -2.9,0.95 -5.94,1.56 -8.84,2.63 -2.38,0.88667 -4.56,1.61667 -6.54,2.19 -6.34667,1.84667 -9.92,2.88 -10.72,3.1 -3.57333,0.96 -7.1,2.12333 -10.58,3.49 -5.33333,2.08667 -12.78667,4.56333 -22.36,7.43 -1.68,0.50667 -3.58333,1.16 -5.71,1.96 -2.46667,0.93333 -4.36667,1.61333 -5.7,2.04 -8.67333,2.78 -17.34,5.53333 -26,8.26 l -40.31,13.09 -17.13,5.68 c -0.31333,0.10667 -0.63667,0.13 -0.97,0.07 l -0.66,-0.11 0.11,-45.25 c -10e-4,-0.50748 0.3298,-0.95976 0.82,-1.12 l 17.01,-5.48 c 0.62087,-0.19676 1.25329,0.26871 1.25,0.92 v 20.38 c -0.002,0.42626 0.41652,0.72751 0.82,0.59 l 17.44,-5.61 c 0.58667,-0.19333 0.88,-0.59667 0.88,-1.21 v -19.35 c 0,-1.06 0.50333,-1.75333 1.51,-2.08 L 652.61,661 c 0.60195,-0.19032 1.21448,0.25516 1.21,0.88 v 20.47 c 0.003,0.50713 0.4973,0.86553 0.98,0.71 l 61.76,-19.89 c 0.3151,-0.10012 0.52936,-0.39523 0.53,-0.73 v -18.95 c -10e-4,-0.9241 0.62465,-1.73126 1.52,-1.96 l 14.57,-3.72 c 0.60787,-0.15695 1.20032,0.3022 1.2,0.93 v 18.4 c -0.003,0.45807 0.44501,0.78358 0.88,0.64 l 16.53,-5.32 c 0.89943,-0.28708 1.50998,-1.12001 1.51,-2.06 v -17.93 c -8.6e-4,-0.73375 0.47184,-1.38423 1.17,-1.61 l 15.62,-5.03 c 0.55685,-0.1834 1.12998,0.25786 1.13,0.87 v 18.95 c 0.004,0.37227 0.36271,0.63502 0.71,0.52 l 10.55,-3.42 24.12,-7.95 c 0.5734,-0.18983 0.96041,-0.726 0.96,-1.33 v -19.22 c 0.001,-0.49138 0.32264,-0.92264 0.79,-1.06 l 14.56,-4.28 c 1.6,-0.62 2.23333,0.91 1.9,4.59 -0.34667,3.91333 -0.31333,8.90333 0.1,14.97 0.0267,0.32667 0.2,0.44333 0.52,0.35 z"
     id="path398"
     sodipodi:nodetypes="cccccccccccccccccccccccccccccccccccccccccccccccccccccccccsccccccccccccccccccccccccccccccccccccccssccccccccccccccccccccccccccccccc" />
  <path
     fill="#6b353b"
     d="   M 240.43 621.23   L 240.46 664.51   Q 240.16 665.06 239.75 664.90   Q 232.00 661.78 229.04 660.91   Q 215.56 656.93 201.98 652.65   L 201.92 629.72   L 221.09 635.67   A 1.21 1.21 0.0 0 0 222.65 634.54   L 222.91 614.83   Q 223.75 615.30 224.57 615.83   Q 225.45 616.39 226.29 616.70   Q 233.33 619.29 240.43 621.23   Z"
     id="path399" />
  <path
     fill="#007057"
     d="m 312.44,616.96 c 5.91171,1.32439 11.67827,2.7809 17.67199,4.15606 0.39661,0.0864 0.9548,0.35015 1.12717,0.59809 0.008,0.25185 0.0152,0.2734 0.0159,0.53282 L 331.0501,663.59 313.45531,658.25974 c -3.14806,0.5175 -1.03556,-10.23717 -1.00223,-12.97641 z"
     id="path400"
     sodipodi:nodetypes="cccccccc" />
  <path
     fill="#008c3e"
     d="m 844.93,578.18 -12.92803,3.41276 c -0.0279,-1.76482 -0.0303,-3.08598 -0.032,-4.34276 l -0.18,-42.2 c 2.90667,-1.2 6.89333,-2.35667 11.96,-3.47 0.77886,-0.20067 0.42528,-0.11185 0.94678,-0.26635 0.0254,2.92915 0.007,6.00122 0.004,8.81171 0,0 0.21963,24.82135 0.22972,38.05464 z"
     id="path383"
     sodipodi:nodetypes="ccccccccc" />
  <path
     fill="#95cb02"
     d="M 332.33765,622.03187 371.05,633.52 c -0.42667,-0.0333 -0.71333,-0.0267 -0.86,0.02 -0.34,0.11333 -0.51333,0.35 -0.52,0.71 l -0.2,24.65 -17.51,-5.37 c -0.62998,-0.18804 -1.26272,0.27898 -1.26,0.93 v 18.31 c -9.6e-4,0.90153 -0.88532,1.53685 -1.74,1.25 l -17.13,-5.82 c -0.43684,-0.1483 -0.73317,-0.56075 -0.74,-1.03 l -0.04,-3.58 c -0.0626,-2.75888 0.15483,-36.21402 0.17955,-41.22764 -0.003,-0.17324 0.008,-0.54716 0.0159,-0.64463 0.0508,0.0275 0.341,0.11785 1.09223,0.31414 z"
     id="path401"
     sodipodi:nodetypes="ccccccccccccccc" />
  <path
     fill="#6b353b"
     d="m 311.84,642.11 c 0.84359,0.41932 0.66477,0.40364 0.60564,3.14978 -0.1126,4.27387 -0.19928,7.08642 -0.20595,11.33309 -0.007,1.36 0.27705,1.30477 1.59202,1.70912 L 331.05,663.59 l 0.04,3.58 c 0.007,0.46925 0.30316,0.8817 0.74,1.03 l 17.13,5.82 c 0.85468,0.28685 1.73904,-0.34847 1.74,-1.25 v -18.31 c -0.003,-0.65102 0.63002,-1.11804 1.26,-0.93 l 17.51,5.37 c 0.28,0.2 0.41667,0.48333 0.41,0.85 -0.0933,6.68 -0.12333,13.17333 -0.09,19.48 l 0.08,24.94 -0.3,26.81 -19.69,-6.47 0.29,-24.72 c 0.0122,-0.86663 -0.549,-1.63926 -1.38,-1.9 l -36.87,-11.55 -52.4,-15.94 c -0.36667,-0.58667 -0.55333,-1.05333 -0.56,-1.4 -0.11333,-12.5 -0.13,-26.32667 -0.05,-41.48 0,-0.93333 0.44,-1.25 1.32,-0.95 l 14.35,4.88 c 0.6828,0.23501 1.14085,0.87789 1.14,1.6 v 17.14 c 8.1e-4,0.93274 0.5948,1.76351 1.48,2.07 l 17.07,5.8 c 0.69136,0.2317 1.40691,-0.28085 1.41,-1.01 v -19.1 c 0.004,-0.49094 0.48187,-0.83798 0.95,-0.69 z"
     id="path402"
     sodipodi:nodetypes="ccccccccccccccccccccccccccccccccc" />
  <path
     fill="#399e3a"
     d="   M 371.05 633.52   L 390.81 639.02   L 390.62 662.89   A 1.31 1.31 0.0 0 0 391.52 664.15   L 409.13 670.14   Q 410.47 670.60 410.46 669.18   L 410.19 644.91   L 436.02 652.13   L 454.99 657.63   A 1.41 1.41 0.0 0 1 456.01 658.97   L 456.23 684.88   Q 456.12 684.99 456.00 685.10   Q 455.90 685.20 455.89 685.38   L 455.38 705.33   A 1.13 1.12 10.3 0 1 453.88 706.36   Q 440.49 701.85 434.09 699.75   Q 433.82 699.66 433.49 699.71   Q 432.89 699.82 432.90 699.98   Q 431.73 699.15 430.70 698.79   Q 420.65 695.24 410.30 692.03   L 391.04 686.15   L 369.79 679.23   Q 369.74 669.77 369.88 659.75   Q 369.89 659.20 369.47 658.90   L 369.67 634.25   Q 369.68 633.71 370.19 633.54   Q 370.41 633.47 371.05 633.52   Z"
     id="path403" />
  <path
     fill="#95cb02"
     d="   M 410.19 644.91   L 410.46 669.18   Q 410.47 670.60 409.13 670.14   L 391.52 664.15   A 1.31 1.31 0.0 0 1 390.62 662.89   L 390.81 639.02   L 410.19 644.91   Z"
     id="path404" />
  <path
     fill="#95cb02"
     d="m 514.12,675.65 -0.23,50.13 c -0.15333,0.16 -0.35333,0.26667 -0.6,0.32 -0.18,0.04 -0.38333,0.0233 -0.61,-0.05 -8.96667,-3.03333 -18.27667,-6.00333 -27.93,-8.91 -3.26,-0.98 -7.07,-2.8 -10.63,-3.89 -0.31052,-0.0967 -0.52152,-0.38478 -0.52,-0.71 v -21.37 c 1.2e-4,-0.59973 -0.38991,-1.12789 -0.96,-1.3 l -16.41,-4.99 -0.22,-25.91 c -0.007,-0.62295 -0.42131,-1.16772 -1.02,-1.34 l -18.97,-5.5 c 14.12,-4.43333 24.34071,-7.38311 37.48604,-11.53239 6.10893,1.91137 17.28042,5.38023 24.42644,7.60497 -6.78418,2.55643 -29.52141,10.51144 -34.04248,12.30742 4.77333,1.36667 9.23667,2.82333 13.39,4.37 3.95333,1.47333 8.4,2.87333 13.34,4.2 8.05333,2.16 15.88667,4.35 23.5,6.57 z"
     id="path405"
     sodipodi:nodetypes="ccccccccccccccccccc" />
  <path
     fill="#6b353b"
     d="   M 829.96 699.22   L 827.87 699.08   Q 827.35 699.05 827.17 698.57   Q 826.86 697.78 826.32 697.71   L 826.43 679.94   Q 826.66 678.54 826.34 677.34   Q 826.21 676.85 825.70 676.85   Q 823.47 676.86 822.50 677.21   Q 815.47 679.76 808.28 681.99   C 806.99 673.79 807.54 665.20 807.62 656.87   L 828.95 650.14   A 0.79 0.78 81.1 0 1 829.97 650.89   L 829.96 699.22   Z"
     id="path406" />
  <path
     fill="#c66638"
     d="   M 240.46 664.51   Q 240.94 664.94 241.48 665.17   Q 250.65 668.97 258.30 670.67   Q 258.98 670.82 259.52 670.40   L 311.92 686.34   L 311.53 712.73   Q 310.96 712.01 310.63 711.90   Q 307.06 710.80 295.13 707.53   L 275.04 701.45   Q 274.78 701.11 273.79 700.88   L 260.26 697.09   L 201.97 678.38   L 201.98 652.65   Q 215.56 656.93 229.04 660.91   Q 232.00 661.78 239.75 664.90   Q 240.16 665.06 240.46 664.51   Z"
     id="path407" />
  <path
     fill="#0c0b37"
     d="m 404.67,445.3 0.36,42.51 -0.11,32.95 c -0.0133,2.94667 -0.13333,6.11667 -0.36,9.51 -0.28667,4.28667 -2.11333,6.81667 -5.48,7.59 -0.40667,0.0933 -3.13667,0.16333 -8.19,0.21 -17.89072,0.16527 -35.78303,0.31294 -53.67146,0.0904 -16.25334,-0.06 -31.42187,-0.74044 -47.56854,-1.08044 -0.35969,-0.0115 -0.6559,0.28017 -0.65,0.64 l 0.13,13.33 0.43,17.04 0.13,13.08 -0.39,13.57 -17.11,-0.17 c -0.82667,-0.0133 -1.25333,-0.43333 -1.28,-1.26 l -0.39,-13.83 -0.13,-22.81 -0.08,-75.46 0.04,-35.4 c -0.0333,-4.36667 -0.0467,-8.71 -0.04,-13.03 0.007,-2.7 1.05,-4.7 3.13,-6 1.77,-1.11 5.63,-0.91 7.06,-0.92 37.10667,-0.10667 74.21333,-0.14333 111.32,-0.11 5.58,0.01 9.43,-0.73 11.85,3.67 0.65333,1.18667 0.98333,2.93333 0.99,5.24 0.0133,3.51333 0.0167,7.06 0.01,10.64 z m -115.83,22.85 -0.05,27.05 -0.05,23.01 c 0,0.28667 0.14,0.43 0.42,0.43 h 95.22 c 1.02,0 1.52333,-0.50667 1.51,-1.52 l -0.15,-22.03 -0.17,-26.86 -0.17,-22.47 c 0,-0.36667 -0.18333,-0.55 -0.55,-0.55 h -95.39 c -0.34,0 -0.51,0.17 -0.51,0.51 z"
     id="path365"
     sodipodi:nodetypes="ccccsccccccccccccccccccccccccssccccsscc" />
  <path
     fill="#472038"
     d="   M 807.62 656.87   C 807.54 665.20 806.99 673.79 808.28 681.99   L 756.50 699.45   Q 749.17 702.81 741.26 704.16   L 685.31 723.00   Q 684.63 722.57 682.79 723.96   Q 667.32 728.43 652.19 733.89   Q 650.84 734.38 646.74 734.93   Q 646.56 726.18 646.32 717.30   Q 646.21 713.28 645.18 709.06   Q 658.17 704.97 671.18 700.80   Q 673.18 700.16 676.88 698.76   Q 680.07 697.56 682.59 696.80   Q 696.95 692.50 704.95 689.37   Q 710.17 687.32 715.53 685.88   Q 716.73 685.55 726.25 682.78   Q 729.22 681.92 732.79 680.59   C 735.69 679.52 738.73 678.91 741.63 677.96   C 751.55 674.68 757.36 672.67 765.87 670.18   Q 785.03 664.59 803.53 657.79   Q 804.84 657.30 807.62 656.87   Z"
     id="path408" />
  <path
     fill="#eef9ee"
     d="   M 826.43 679.94   Q 819.32 683.29 811.80 685.40   Q 809.54 686.04 806.69 687.33   Q 804.17 688.47 801.52 689.23   Q 795.61 690.93 795.51 690.96   Q 778.83 696.50 762.72 701.54   A 2.56 2.56 0.0 0 0 760.92 704.13   L 761.76 719.56   L 757.52 721.00   A 0.72 0.72 0.0 0 1 756.57 720.32   L 756.50 699.45   L 808.28 681.99   Q 815.47 679.76 822.50 677.21   Q 823.47 676.86 825.70 676.85   Q 826.21 676.85 826.34 677.34   Q 826.66 678.54 826.43 679.94   Z"
     id="path409" />
  <path
     fill="#fdffe9"
     d="   M 260.26 697.09   L 260.11 717.32   A 0.76 0.76 0.0 0 1 259.10 718.03   L 215.48 703.21   A 0.48 0.47 -80.4 0 0 214.85 703.66   L 214.85 719.98   A 1.80 1.79 9.3 0 0 216.08 721.68   Q 244.17 730.90 254.72 734.30   Q 257.87 735.32 259.70 736.43   Q 260.13 736.70 260.13 737.21   L 259.90 798.16   Q 255.84 797.31 251.89 795.42   A 4.54 3.14 27.1 0 0 251.30 795.17   L 201.87 777.86   L 201.91 756.95   L 239.79 769.97   A 0.43 0.43 0.0 0 0 240.36 769.56   L 240.36 751.97   A 1.11 1.11 0.0 0 0 239.59 750.91   L 201.97 738.72   L 201.97 678.38   L 260.26 697.09   Z"
     id="path410"
     style="fill:#ffffff;fill-opacity:1" />
  <path
     fill="#59b029"
     d="   M 391.04 686.15   L 390.86 710.47   Q 390.40 710.92 389.68 710.92   L 369.87 704.17   L 369.79 679.23   L 391.04 686.15   Z"
     id="path411" />
  <path
     fill="#b6f2eb"
     d="   M 826.43 679.94   L 826.32 697.71   Q 826.22 698.05 826.24 698.48   L 808.67 704.21   Q 807.03 704.75 807.02 706.47   L 806.67 783.12   L 791.53 788.68   Q 790.67 782.87 790.69 781.33   C 790.80 769.44 790.38 760.21 790.61 749.05   Q 790.89 735.48 789.90 718.36   Q 789.78 716.31 789.11 712.88   A 1.08 1.08 0.0 0 0 788.56 712.14   Q 787.53 711.60 786.30 712.57   Q 786.35 711.25 785.56 711.52   Q 773.69 715.66 761.76 719.56   L 760.92 704.13   A 2.56 2.56 0.0 0 1 762.72 701.54   Q 778.83 696.50 795.51 690.96   Q 795.61 690.93 801.52 689.23   Q 804.17 688.47 806.69 687.33   Q 809.54 686.04 811.80 685.40   Q 819.32 683.29 826.43 679.94   Z"
     id="path412" />
  <path
     fill="#6b353b"
     d="   M 456.23 684.88   L 472.64 689.87   A 1.36 1.35 -81.7 0 1 473.60 691.17   L 473.60 712.54   A 0.74 0.74 0.0 0 0 474.12 713.25   C 477.68 714.34 481.49 716.16 484.75 717.14   Q 499.23 721.50 512.68 726.05   Q 513.02 726.16 513.29 726.10   Q 513.66 726.02 513.89 725.78   L 514.30 726.86   L 513.67 749.57   A 0.77 0.77 0.0 0 0 514.67 750.32   L 563.37 735.08   Q 570.06 732.91 576.67 731.43   Q 578.28 731.07 580.90 729.83   Q 582.99 728.83 585.30 728.46   Q 586.24 728.72 586.31 730.25   Q 586.79 741.77 586.44 750.19   Q 586.42 750.88 586.09 751.91   Q 585.53 753.71 586.76 753.72   Q 572.33 758.48 557.78 763.29   Q 555.90 763.91 555.90 764.52   Q 543.62 766.98 532.10 771.76   L 513.86 777.01   L 513.66 751.40   A 1.13 1.13 0.0 0 0 512.87 750.32   L 479.11 739.19   L 454.24 731.29   L 433.45 724.21   Q 433.50 723.63 433.09 723.80   L 432.90 699.98   Q 432.89 699.82 433.49 699.71   Q 433.82 699.66 434.09 699.75   Q 440.49 701.85 453.88 706.36   A 1.13 1.12 10.3 0 0 455.38 705.33   L 455.89 685.38   Q 455.90 685.20 456.00 685.10   Q 456.12 684.99 456.23 684.88   Z"
     id="path413" />
  <path
     fill="#de722e"
     d="   M 311.92 686.34   L 348.79 697.89   A 1.97 1.96 9.2 0 1 350.17 699.79   L 349.88 724.51   Q 348.29 723.71 346.66 724.03   Q 339.97 720.82 332.28 719.18   Q 331.49 719.01 331.02 719.28   L 330.59 718.93   Q 330.31 718.72 329.98 718.61   L 311.53 712.73   L 311.92 686.34   Z"
     id="path414" />
  <path
     fill="#6b353b"
     d="   M 410.30 692.03   L 410.54 717.04   Q 409.74 717.17 409.26 717.00   Q 400.50 714.09 391.70 711.32   Q 391.01 711.11 390.86 710.47   L 391.04 686.15   L 410.30 692.03   Z"
     id="path415" />
  <path
     fill="#0c0b37"
     d="m 563.37,735.08 -48.7,15.24 c -0.50202,0.15724 -1.01038,-0.22404 -1,-0.75 L 513.85685,725.85312 542.85,717.58 c 0.77569,-0.25158 1.30074,-0.97454 1.3,-1.79 v -20.06 c -0.002,-0.6975 0.45161,-1.31651 1.12,-1.53 l 16.99,-5.48 c 0.66822,-0.21113 1.3476,0.28573 1.34,0.98 z"
     id="path416"
     sodipodi:nodetypes="ccccccccccc" />
  <path
     fill="#95cb02"
     d="   M 432.90 699.98   L 433.09 723.80   Q 432.01 724.22 430.51 723.75   Q 425.38 722.15 416.18 718.82   Q 414.38 718.17 410.86 717.49   Q 410.86 717.30 410.54 717.04   L 410.30 692.03   Q 420.65 695.24 430.70 698.79   Q 431.73 699.15 432.90 699.98   Z"
     id="path417" />
  <path
     fill="#78403f"
     d="   M 273.79 700.88   Q 273.34 703.51 273.36 704.92   Q 273.40 708.54 273.83 723.16   Q 273.91 725.56 274.68 727.71   Q 274.94 728.43 274.95 727.67   L 275.14 719.21   L 275.21 803.18   Q 275.54 804.05 274.46 803.74   Q 270.62 801.89 266.62 800.18   Q 265.37 799.64 263.26 799.32   Q 261.12 798.98 259.90 798.16   L 260.13 737.21   Q 260.13 736.70 259.70 736.43   Q 257.87 735.32 254.72 734.30   Q 244.17 730.90 216.08 721.68   A 1.80 1.79 9.3 0 1 214.85 719.98   L 214.85 703.66   A 0.48 0.47 -80.4 0 1 215.48 703.21   L 259.10 718.03   A 0.76 0.76 0.0 0 0 260.11 717.32   L 260.26 697.09   L 273.79 700.88   Z"
     id="path418" />
  <path
     fill="#472038"
     d="m 829.96,699.22 0.06,98.25 c 5.9e-4,0.68952 -0.44866,1.30066 -1.11,1.51 -7.21333,2.27333 -14.36,4.94333 -21.44,8.01 -1.34667,0.58667 -2.74,1.08333 -4.18,1.49 -2.16667,0.6 -3.57667,1.04 -4.23,1.32 -1.68,0.72667 -3.59333,1.45667 -5.74,2.19 -3.27333,1.11333 -5.20333,1.79 -5.79,2.03 -5.71333,2.30667 -11.46667,4.50333 -17.26,6.59 -2.02667,0.73333 -9.05,3.40667 -21.07,8.02 -6.29333,2.42 -12.33667,4.66 -18.13,6.72 -4.05333,1.44667 -8.09,2.94333 -12.11,4.49 -5.10667,1.96 -9.13667,3.47 -12.09,4.53 -11.34,4.06667 -18.70667,6.74667 -22.1,8.04 -2.86,1.09 -5.86,3.03 -8.8,3.68 -2.19333,0.48667 -4.20667,1.10333 -6.04,1.85 -6.01333,2.43333 -12.14333,4.71667 -18.39,6.85 -2.68,0.91 -5.52,2.37 -8.04,3.27 -8.4,2.96667 -13.96667,4.97 -16.7,6.01 -7.98667,3.02667 -13.52667,5.05667 -16.62,6.09 -8.58,2.86 -15.22667,5.29 -19.94,7.29 -2.29333,0.97333 -6.24,2.36667 -11.84,4.18 -2.28,0.74667 -5.97333,2.12667 -11.08,4.14 -2.69333,1.06 -6.43333,2.32333 -11.22,3.79 -1.86667,0.57333 -4.21333,1.49667 -7.04,2.77 -1.66,0.75333 -3.23333,1.37 -4.72,1.85 -2.58,0.84 -4.18,1.37333 -4.8,1.6 -14.28,5.21333 -22.37667,8.13333 -24.29,8.76 -1.16313,0.39061 -1,-0.0467 -1.16,-0.74 -0.1,-6.60667 -0.18,-13.20667 -0.24,-19.8 -0.0133,-1.50667 0.0633,-3.00667 0.23,-4.5 0.08,-0.76 -0.0831,-1.08803 0.53695,-1.24803 L 516.08,887.77 l 16.21139,-6.14141 c 0.0867,0.2 0.25456,0.15773 0.62239,0.12762 0.25124,-0.0206 0.45492,-0.10588 0.70825,-0.23918 1.31951,-0.53368 7.13464,-2.79036 10.90797,-3.79703 1.84,-0.49333 3.73333,-1.15333 5.68,-1.98 1.94933,-0.65991 3.87952,-1.30088 5.74,-1.96 1.90036,-0.67466 3.78614,-1.19237 5.84,-2.15 l 15.06,-5.39 c 1.21333,-0.0333 2.43,-0.28 3.65,-0.74 12.36,-4.66 24.76333,-9.20333 37.21,-13.63 0.27247,-0.0976 0.45842,-0.35081 0.47,-0.64 l 0.01,-0.48 0.16,-0.04 c 0.36,0.67333 0.98333,0.86 1.87,0.56 0.92667,-0.31333 1.89333,-0.75333 2.9,-1.32 16.62667,-6.36667 32.33,-12.02333 47.11,-16.97 0.48,-0.16667 0.8,-0.51333 0.96,-1.04 -0.007,0.33333 0.0467,0.6 0.16,0.8 0.18,0.32667 0.42333,0.39 0.73,0.19 4.26667,-2.82 8.89,-4.53333 13.87,-5.14 l 6.36,-2.65 14.43,-4.58 c 1.54,-1.3 2.66,-2.04333 3.36,-2.23 3.73333,-1.00667 7.36,-2.13333 10.88,-3.38 6.63333,-2.24667 13.15,-4.6 19.55,-7.06 0.39333,-0.14667 0.64,-0.34 0.74,-0.58 0.12667,-0.28 0.15333,-0.62 0.08,-1.02 l 0.08,1.17 c 0.0329,0.4573 0.59162,0.65991 0.91,0.33 0.6,-0.63333 1.35,-1.10333 2.25,-1.41 4.91333,-1.64667 9.75333,-3.47667 14.52,-5.49 4.60667,-1.94667 13.79,-5.25667 27.55,-9.93 l 4.87,-2.28 15.14,-5.56 c 0.20667,0.0267 0.42667,0.04 0.66,0.04 0.2,0.007 0.41,-0.0367 0.63,-0.13 5.11333,-2.21333 10.22333,-4.30667 15.33,-6.28 1.01795,-0.39331 1.72645,-1.33023 1.83,-2.42 l 0.19,-2.09 c 0.0667,-0.66667 0.07,-1.36333 0.01,-2.09 -0.36667,-4.78 -0.26,-9.75667 0.32,-14.93 0.14,-1.26 -0.0133,-6.73 -0.46,-16.41 -0.28,-6.25 -0.25,-11.4 -0.12,-18.24 0.0533,-2.80667 0.003,-5.99333 -0.15,-9.56 -0.13333,-3.19333 -0.0533,-6.39 0.24,-9.59 0.08,-0.79333 0.41333,-1.44667 1,-1.96 0.2,-0.18 0.29667,-0.4 0.29,-0.66 -0.0133,-0.21333 -0.08,-0.32 -0.2,-0.32 -0.0133,-0.28667 0.0133,-0.54333 0.08,-0.77 0.36,0.0467 0.64333,0.33333 0.85,0.86 0.12,0.32 0.35333,0.49 0.7,0.51 z"
     id="path419"
     sodipodi:nodetypes="cccccccccccccsccccccscccccccccccccscccccccccccsccccccccccccccccccccccscccccsccccccccc" />
  <path
     fill="#0c0b37"
     d="   M 826.24 698.48   Q 826.42 698.48 826.44 698.80   Q 826.45 699.19 826.15 699.46   Q 825.27 700.23 825.15 701.42   Q 824.71 706.22 824.91 711.01   Q 825.14 716.36 825.06 720.57   C 824.93 727.41 824.90 732.56 825.18 738.81   Q 825.85 753.33 825.64 755.22   Q 824.77 762.98 825.32 770.15   Q 825.41 771.24 825.31 772.24   Q 825.30 772.35 825.12 774.33   A 2.89 2.88 82.3 0 1 823.29 776.75   Q 815.63 779.71 807.96 783.03   Q 807.63 783.17 807.33 783.16   Q 806.98 783.16 806.67 783.12   L 807.02 706.47   Q 807.03 704.75 808.67 704.21   L 826.24 698.48   Z"
     id="path420" />
  <path
     fill="#0c0b37"
     d="   M 756.50 699.45   L 756.57 720.32   A 0.72 0.72 0.0 0 0 757.52 721.00   L 761.76 719.56   Q 773.69 715.66 785.56 711.52   Q 786.35 711.25 786.30 712.57   L 786.66 790.96   Q 766.02 797.97 759.11 800.89   Q 751.96 803.91 744.59 806.38   Q 743.24 806.84 742.34 807.79   A 0.53 0.53 0.0 0 1 741.43 807.46   L 741.35 806.29   L 741.40 708.46   L 741.26 704.16   Q 749.17 702.81 756.50 699.45   Z"
     id="path421" />
  <path
     fill="#6b353b"
     d="   M 273.79 700.88   Q 274.78 701.11 275.04 701.45   L 275.14 719.21   L 274.95 727.67   Q 274.94 728.43 274.68 727.71   Q 273.91 725.56 273.83 723.16   Q 273.40 708.54 273.36 704.92   Q 273.34 703.51 273.79 700.88   Z"
     id="path422" />
  <path
     fill="#de722e"
     d="   M 389.68 710.92   Q 390.62 722.62 390.50 731.41   Q 390.47 733.85 389.38 737.04   L 369.57 730.98   L 369.87 704.17   L 389.68 710.92   Z"
     id="path424" />
  <path
     fill="#eef9ee"
     d="   M 741.26 704.16   L 741.40 708.46   Q 741.57 709.87 740.56 710.07   A 0.82 0.79 -36.1 0 1 740.05 710.00   Q 738.61 709.28 737.64 709.68   Q 733.68 711.31 730.70 712.18   Q 727.04 713.25 723.75 714.54   Q 707.03 721.12 692.67 724.86   Q 691.01 725.29 690.57 726.14   Q 689.98 727.28 689.93 728.76   Q 689.84 731.13 690.33 739.43   Q 690.67 745.30 690.57 750.08   Q 690.17 769.48 690.61 820.75   Q 690.63 823.34 692.31 825.14   L 685.95 827.79   L 685.32 823.05   L 685.31 723.00   L 741.26 704.16   Z"
     id="path425" />
  <path
     fill="#78403f"
     d="   M 311.53 712.73   L 311.64 792.25   A 0.86 0.85 9.1 0 1 310.51 793.06   L 296.32 788.24   A 2.14 2.13 9.7 0 1 294.88 786.21   L 295.13 707.53   Q 307.06 710.80 310.63 711.90   Q 310.96 712.01 311.53 712.73   Z"
     id="path426" />
  <path
     fill="#b6f2eb"
     d="   M 741.40 708.46   L 741.35 806.29   Q 741.46 806.89 741.27 807.31   Q 741.12 807.67 740.53 807.89   Q 730.93 811.58 720.98 814.95   L 721.08 785.59   A 0.49 0.49 0.0 0 0 720.42 785.13   L 708.08 789.72   A 1.42 1.41 -9.9 0 0 707.17 791.01   L 706.74 820.56   L 692.31 825.14   Q 690.63 823.34 690.61 820.75   Q 690.17 769.48 690.57 750.08   Q 690.67 745.30 690.33 739.43   Q 689.84 731.13 689.93 728.76   Q 689.98 727.28 690.57 726.14   Q 691.01 725.29 692.67 724.86   Q 707.03 721.12 723.75 714.54   Q 727.04 713.25 730.70 712.18   Q 733.68 711.31 737.64 709.68   Q 738.61 709.28 740.05 710.00   A 0.82 0.79 -36.1 0 0 740.56 710.07   Q 741.57 709.87 741.40 708.46   Z   M 707.15 762.67   A 0.62 0.62 0.0 0 0 707.96 763.26   L 720.64 759.12   A 0.62 0.62 0.0 0 0 721.07 758.53   L 721.08 734.41   A 0.62 0.62 0.0 0 0 720.27 733.83   L 707.60 737.96   A 0.62 0.62 0.0 0 0 707.17 738.55   L 707.15 762.67   Z"
     id="path427" />
  <path
     fill="#6b353b"
     d="   M 645.18 709.06   Q 646.21 713.28 646.32 717.30   Q 646.56 726.18 646.74 734.93   Q 644.59 736.02 643.89 736.15   Q 639.89 736.93 639.08 738.36   Q 639.07 738.24 638.95 738.15   Q 638.80 738.02 638.61 738.05   Q 635.93 738.49 634.27 739.01   Q 630.36 740.25 618.15 744.33   Q 617.45 744.12 616.53 744.69   Q 611.28 746.30 606.13 748.15   Q 605.79 748.27 604.69 748.17   L 604.87 722.15   L 645.18 709.06   Z"
     id="path428" />
  <path
     fill="#c66638"
     d="m 410.54,717.04 c 0.21333,0.17333 0.32,0.32333 0.32,0.45 l 0.02,26.36 c -0.69333,-0.23333 -1.36667,-0.18667 -2.02,0.14 -4.92,-2.52667 -10.17667,-4.35667 -15.77,-5.49 l -3.71,-1.46 c 0.16613,-2.45363 0.23597,-4.34895 0.25597,-5.97561 0.08,-5.86 0.0896,-12.3437 0.044,-20.14439 0.48,0 0.87333,-0.15 1.18,-0.45 0.1,0.42667 0.38,0.71 0.84,0.85 5.86667,1.84667 11.72,3.74 17.56,5.68 0.32,0.11333 0.74667,0.12667 1.28,0.04 z"
     id="path429"
     sodipodi:nodetypes="cccccccccccc" />
  <path
     fill="#eef9ee"
     d="   M 791.53 788.68   L 786.66 790.96   L 786.30 712.57   Q 787.53 711.60 788.56 712.14   A 1.08 1.08 0.0 0 1 789.11 712.88   Q 789.78 716.31 789.90 718.36   Q 790.89 735.48 790.61 749.05   C 790.38 760.21 790.80 769.44 790.69 781.33   Q 790.67 782.87 791.53 788.68   Z"
     id="path430" />
  <path
     fill="#78403f"
     d="m 433.09,723.8 c 0.27333,-0.11333 0.39333,0.0233 0.36,0.41 -0.39333,0.55333 -0.57333,1.15 -0.54,1.79 0.2,4.13333 0.77891,8.96098 0.42558,14.16098 0.19508,3.78574 0.16057,7.34373 0.12442,11.33902 l -22.58,-7.65 -0.02,-26.36 c 2.34667,0.45333 4.12,0.89667 5.32,1.33 6.13333,2.22 10.91,3.86333 14.33,4.93 1,0.31333 1.86,0.33 2.58,0.05 z"
     id="path431"
     sodipodi:nodetypes="cccccccccc" />
  <path
     fill="#a55239"
     d="   M 346.66 724.03   L 346.62 746.21   L 346.44 748.10   Q 346.43 748.12 346.43 748.10   Q 346.31 746.59 346.23 745.15   A 0.81 0.80 9.3 0 0 345.72 744.45   Q 338.43 741.65 330.93 740.70   L 331.02 719.28   Q 331.49 719.01 332.28 719.18   Q 339.97 720.82 346.66 724.03   Z"
     id="path432" />
  <path
     fill="#472038"
     d="   M 604.87 722.15   L 604.69 748.17   Q 603.64 748.68 602.32 748.77   L 586.76 753.72   Q 585.53 753.71 586.09 751.91   Q 586.42 750.88 586.44 750.19   Q 586.79 741.77 586.31 730.25   Q 586.24 728.72 585.30 728.46   Q 585.90 728.25 586.11 727.79   L 586.77 727.90   Q 587.27 727.99 587.74 727.83   L 604.87 722.15   Z"
     id="path433" />
  <path
     fill="#070300"
     d="   M 685.31 723.00   L 685.32 823.05   Q 685.25 828.14 684.07 821.56   Q 683.91 820.66 683.88 819.74   Q 683.56 810.80 683.58 809.47   Q 684.23 767.26 683.69 736.76   C 683.64 733.56 684.59 727.99 682.79 723.96   Q 684.63 722.57 685.31 723.00   Z"
     id="path434" />
  <path
     fill="#0c0b37"
     d="   M 682.79 723.96   C 684.59 727.99 683.64 733.56 683.69 736.76   Q 684.23 767.26 683.58 809.47   Q 683.56 810.80 683.88 819.74   Q 683.91 820.66 684.07 821.56   Q 685.25 828.14 685.32 823.05   L 685.95 827.79   Q 678.48 828.70 672.08 832.93   Q 671.62 833.23 671.35 832.74   Q 671.18 832.44 671.19 831.94   L 671.16 814.81   L 671.03 811.31   A 0.36 0.35 -10.5 0 0 670.56 810.99   L 639.57 821.61   Q 639.13 818.76 639.13 815.33   Q 639.20 779.12 639.12 742.98   L 639.08 738.36   Q 639.89 736.93 643.89 736.15   Q 644.59 736.02 646.74 734.93   Q 650.84 734.38 652.19 733.89   Q 667.32 728.43 682.79 723.96   Z"
     id="path436" />
  <path
     fill="#de722e"
     d="m 433.45,724.21 20.79,7.08 c 0.28,6.55333 0.63,13.08 1.05,19.58 0.11333,1.82667 0.0133,4.32 -0.3,7.48 l -21.53,-6.85 c -0.31076,-4.11303 -0.29346,-7.53647 -0.40939,-11.44556 -0.002,-5.60525 -0.0782,-9.94364 -0.14061,-14.05444 -0.0333,-0.64 0.14667,-1.23667 0.54,-1.79 z"
     id="path437"
     sodipodi:nodetypes="cccccccc" />
  <path
     fill="#c66638"
     d="   M 479.11 739.19   Q 480.84 756.52 492.21 770.54   Q 483.17 767.63 474.48 765.00   Q 474.02 764.86 473.44 765.10   L 472.75 764.29   Q 472.46 763.96 472.05 763.82   L 457.90 759.01   Q 457.31 758.81 457.06 759.38   L 456.69 760.26   Q 456.43 757.89 454.99 758.35   Q 455.46 753.61 455.29 750.87   Q 454.66 741.12 454.24 731.29   L 479.11 739.19   Z"
     id="path438" />
  <path
     fill="#0c0b37"
     d="   M 707.15 762.67   L 707.17 738.55   A 0.62 0.62 0.0 0 1 707.60 737.96   L 720.27 733.83   A 0.62 0.62 0.0 0 1 721.08 734.41   L 721.07 758.53   A 0.62 0.62 0.0 0 1 720.64 759.12   L 707.96 763.26   A 0.62 0.62 0.0 0 1 707.15 762.67   Z"
     id="path439" />
  <path
     fill="#eef9ee"
     d="m 639.08,738.36 0.04,4.62 c -1.25333,-0.90667 -1.9424,-0.73832 -2.81237,-0.36032 -4.80786,1.76761 -8.86763,3.10032 -12.76763,5.72032 -0.53896,0.35709 -0.87086,0.95376 -0.89,1.6 -0.19333,6.34667 -0.18,13.56333 0.04,21.65 0.31,11.27 0.17,18.52 -0.14,30.81 -0.08,3.08667 -0.07,6.16 0.03,9.22 0.10667,3.46667 0.19333,6.53667 0.26,9.21 0.0667,2.52 0.0467,7.12 -0.06,13.8 -0.08,5.14 0.0333,10.24667 0.34,15.32 -1.00667,0.56667 -1.97333,1.00667 -2.9,1.32 -0.88667,0.3 -1.51,0.11333 -1.87,-0.56 l -0.2,-106.38 c 8.14,-2.72 13.51333,-4.49333 16.12,-5.32 1.10667,-0.34667 2.55333,-0.66667 4.34,-0.96 0.12667,-0.02 0.24,0.0133 0.34,0.1 0.08,0.06 0.12333,0.13 0.13,0.21 z"
     id="path440"
     sodipodi:nodetypes="cccccccccccscccccc" />
  <path
     fill="#78403f"
     d="   M 408.86 743.99   L 409.04 851.27   Q 409.27 851.68 409.18 851.78   A 1.17 1.11 30.0 0 1 407.93 852.08   L 388.94 845.14   L 370.91 838.65   L 365.16 836.12   L 364.99 792.22   A 0.65 0.65 0.0 0 1 365.85 791.61   L 384.19 797.84   Q 384.74 798.03 385.22 797.69   L 392.76 792.31   A 0.82 0.80 73.0 0 0 393.11 791.64   L 393.09 738.50   Q 401.48 740.20 408.86 743.99   Z"
     id="path441" />
  <path
     fill="#78403f"
     d="   M 201.91 756.95   L 201.97 738.72   L 239.59 750.91   A 1.11 1.11 0.0 0 1 240.36 751.97   L 240.36 769.56   A 0.43 0.43 0.0 0 1 239.79 769.97   L 201.91 756.95   Z"
     id="path442" />
  <path
     fill="#de722e"
     d="m 479.11,739.19 33.76,11.13 c 0.47109,0.14863 0.79103,0.58602 0.79,1.08 l 0.2,25.61 c -0.28667,0.16 -0.57333,0.2 -0.86,0.12 -6.06667,-1.70667 -25.90792,-7.7541 -33.70126,-10.44077 C 478.74837,739.74259 479.24272,765.74 479.11,739.19 Z"
     id="path443"
     sodipodi:nodetypes="ccccccc" />
  <path
     fill="#78403f"
     d="m 346.62,746.21 0.01,68.07 0.24217,7.08314 c 0.007,0.26667 1.64226,9.30071 1.39256,9.20714 -13.69613,-5.13255 -14.71014,-5.80134 -18.34331,-7.24261 L 330.93,740.7 c 5,0.63333 9.93,1.88333 14.79,3.75 0.29295,0.11592 0.49191,0.38901 0.51,0.7 0.0533,0.96 0.12,1.94333 0.2,2.95 0,0.0133 0.003,0.0133 0.01,0 z"
     id="path444"
     sodipodi:nodetypes="cccsccccccc" />
  <path
     fill="#b6f2eb"
     d="m 639.12,742.98 c 0.0533,24.09333 0.0567,48.21 0.01,72.35 0,2.28667 0.14667,4.38 0.44,6.28 -0.0467,0.96 -0.24667,1.89 -0.6,2.79 -0.11175,0.27068 0.13851,0.55073 0.42,0.47 5.32667,-1.43333 10.60667,-2.91667 15.84,-4.45 5.46,-1.6 10.77,-3.47 15.93,-5.61 l 0.03,17.13 c -0.16,0.52667 -0.48,0.87333 -0.96,1.04 -14.78,4.94667 -30.48333,10.60333 -47.11,16.97 -0.30667,-5.07333 -0.42,-10.18 -0.34,-15.32 0.10667,-6.68 0.12667,-11.28 0.06,-13.8 -0.0667,-2.67333 -0.15333,-5.74333 -0.26,-9.21 -0.1,-3.06 -0.11,-6.13333 -0.03,-9.22 0.31,-12.29 0.45,-19.54 0.14,-30.81 -0.22,-8.08667 -0.23333,-15.30333 -0.04,-21.65 0.0191,-0.64624 0.0796,-2.17333 0.61852,-2.53042 4.4426,-1.9278 4.59032,-2.01105 9.85997,-3.79729 0.66667,-0.38667 5.88454,-2.60756 5.99151,-0.63229 z"
     id="path445"
     sodipodi:nodetypes="ccccccccccccccccccc" />
  <path
     fill="#fdffe9"
     d="m 410.88,743.85 22.58,7.65 21.53,6.85 c 0.96,-0.30667 1.52667,0.33 1.7,1.91 l -0.03,19.1 c 0,0.44667 -0.21,0.59667 -0.63,0.45 l -27.57,-9.37 c -0.52638,-0.17841 -1.07197,0.21421 -1.07,0.77 v 16.49 c -1.2e-4,0.86687 0.55023,1.63816 1.37,1.92 l 26.78,9.1 c 0.54979,0.18474 0.92013,0.7 0.92,1.28 v 18.99 c 0,1.13333 -0.53667,1.51667 -1.61,1.15 l -26.65,-9.05 c -0.39782,-0.13807 -0.81257,0.15891 -0.81,0.58 v 24.36 c -4.4e-4,0.70596 0.44578,1.33309 1.11,1.56 l 27.2,9.24 c 0.52,0.18 0.78333,0.54667 0.79,1.1 l 0.43163,21.04393 c -0.23698,0.12168 -0.67501,0.27314 -0.95014,0.14281 L 438.43,862.14 c -9.48667,-3.18667 -18.87333,-6.39 -28.16,-9.61 -0.62667,-0.21333 -1.03667,-0.63333 -1.23,-1.26 l -0.18,-107.28 c 0.65333,-0.32667 1.32667,-0.37333 2.02,-0.14 z"
     id="path446"
     sodipodi:nodetypes="ccccccccccccscccccccccccccc"
     style="fill:#ffffff;fill-opacity:1" />
  <path
     fill="#070300"
     d="   M 618.15 744.33   L 618.35 850.71   Q 618.27 850.73 618.19 850.75   Q 618.03 851.31 617.62 851.53   Q 617.11 851.82 617.09 851.24   C 616.71 842.73 616.22 832.37 616.33 822.19   C 616.47 809.79 616.51 798.29 616.75 786.48   Q 616.88 780.62 616.70 772.01   Q 616.58 766.06 616.83 749.06   Q 616.86 746.96 616.53 744.69   Q 617.45 744.12 618.15 744.33   Z"
     id="path447" />
  <path
     fill="#0c0b37"
     d="   M 616.53 744.69   Q 616.86 746.96 616.83 749.06   Q 616.58 766.06 616.70 772.01   Q 616.88 780.62 616.75 786.48   C 616.51 798.29 616.47 809.79 616.33 822.19   C 616.22 832.37 616.71 842.73 617.09 851.24   Q 617.11 851.82 617.62 851.53   Q 618.03 851.31 618.19 850.75   L 618.18 851.23   A 0.71 0.71 0.0 0 1 617.71 851.87   Q 599.04 858.51 580.50 865.50   Q 578.67 866.19 576.85 866.24   L 577.15 819.20   Q 577.16 817.79 578.50 817.35   L 600.73 810.20   A 1.89 1.89 0.0 0 0 602.04 808.40   L 602.04 792.90   L 601.89 789.60   A 0.49 0.48 -9.7 0 0 601.26 789.16   L 577.63 796.77   A 0.24 0.24 0.0 0 1 577.31 796.54   L 577.31 778.32   Q 577.31 777.35 578.23 777.05   L 600.42 769.91   Q 601.97 769.41 601.99 767.78   L 602.32 748.77   Q 603.64 748.68 604.69 748.17   Q 605.79 748.27 606.13 748.15   Q 611.28 746.30 616.53 744.69   Z"
     id="path448" />
  <path
     fill="#eef9ee"
     d="m 602.32,748.77 -0.33,19.01 c -0.0133,1.08667 -0.53667,1.79667 -1.57,2.13 l -22.19,7.14 c -0.61333,0.2 -0.92,0.62333 -0.92,1.27 v 18.22 c -0.003,0.16722 0.16233,0.28577 0.32,0.23 l 23.63,-7.61 c 0.30774,-0.0925 0.61941,0.12518 0.63,0.44 l 0.15,3.3 c -9,3.35333 -16.67,5.33 -23.01,5.93 -0.72,0.0667 -1.62333,-0.41 -2.71,-1.43 -0.62,-0.57333 -0.98,-1.44667 -1.08,-2.62 -0.27333,-3.31333 -0.33,-6.43333 -0.17,-9.36 0.38,-6.97 0.85,-11.93 8.47,-13.18 4.54,-0.75333 8.35333,-1.74333 11.44,-2.97 1.86,-0.74 3.43333,-2.25667 4.72,-4.55 0.7,-1.24667 1.07667,-2.79333 1.13,-4.64 0.06,-2.12 0.10667,-3.73667 0.14,-4.85 0.02,-1.02667 -0.45667,-1.38333 -1.43,-1.07 l -37.3,12.01 c -0.55441,0.18014 -0.90817,0.72536 -0.85,1.31 0.95,9.36 1.09,20.76 1.01,29.72 -0.28667,33.95333 -0.42333,56.53 -0.41,67.73 0.007,2.3 -0.06,4.53333 -0.2,6.7 -2.06536,0.88304 -3.89777,1.49656 -5.84,2.15 L 555.9,764.52 c 0,-0.40667 0.62667,-0.81667 1.88,-1.23 9.7,-3.20667 19.36,-6.39667 28.98,-9.57 z"
     id="path449"
     sodipodi:nodetypes="ccccsccccccccccccccccccccccccc" />
  <path
     fill="#78403f"
     d="   M 365.06 769.57   L 364.89 752.26   A 0.99 0.99 0.0 0 1 366.21 751.32   L 374.51 754.22   A 0.99 0.99 0.0 0 1 375.18 755.15   L 375.35 772.44   A 0.99 0.99 0.0 0 1 374.03 773.39   L 365.73 770.50   A 0.99 0.99 0.0 0 1 365.06 769.57   Z"
     id="path450" />
  <path
     fill="#b6f2eb"
     d="m 602.04,792.9 v 15.5 c 5.2e-4,0.8208 -0.5288,1.54811 -1.31,1.8 l -22.23,7.15 c -0.89333,0.29333 -1.34333,0.91 -1.35,1.85 l -0.3,47.04 -15.06,5.39 c 0.14,-2.16667 0.20667,-4.4 0.2,-6.7 -0.0133,-11.2 0.12333,-33.77667 0.41,-67.73 0.08,-8.96 -0.06,-20.36 -1.01,-29.72 -0.0582,-0.58464 0.29559,-1.12986 0.85,-1.31 l 37.3,-12.01 c 0.97333,-0.31333 1.45,0.0433 1.43,1.07 -0.0469,4.10336 -0.0856,7.80129 -0.24525,12.16427 -2.31073,1.29067 -3.72627,1.62601 -5.65861,2.20891 -4.46227,1.18272 -6.7752,1.64643 -11.52614,2.63682 -7.62,1.25 -8.09,6.21 -8.47,13.18 -0.16,2.92667 -0.10333,6.04667 0.17,9.36 0.1,1.17333 0.46,2.04667 1.08,2.62 1.08667,1.02 1.99,1.49667 2.71,1.43 6.34,-0.6 14.01,-2.57667 23.01,-5.93 z"
     id="path451"
     sodipodi:nodetypes="ccccccccccccccccccccc" />
  <path
     fill="#78403f"
     d="m 473.44,765.1 0.43,108.87 c 0.0333,0.18 0.0367,0.33667 0.01,0.47 -0.0733,0.37333 -0.28667,0.49333 -0.64,0.36 -5.36,-2.1 -11.07466,-3.96474 -16.54133,-5.74474 -0.33333,-0.10667 -0.202,-0.44193 -0.20867,-0.85526 v -20.27 c -0.007,-0.55333 -0.27,-0.92 -0.79,-1.1 l -27.2,-9.24 c -0.66422,-0.22691 -1.11044,-0.85404 -1.11,-1.56 v -24.36 c -0.003,-0.42109 0.41218,-0.71807 0.81,-0.58 l 26.65,9.05 c 1.07333,0.36667 1.61,-0.0167 1.61,-1.15 V 800 c 1.3e-4,-0.58 -0.37021,-1.09526 -0.92,-1.28 l -26.78,-9.1 c -0.81977,-0.28184 -1.37012,-1.05313 -1.37,-1.92 v -16.49 c -0.002,-0.55579 0.54362,-0.94841 1.07,-0.77 l 27.57,9.37 c 0.42,0.14667 0.63,-0.003 0.63,-0.45 l 0.03,-19.1 0.37,-0.88 c 0.16667,-0.38 0.44667,-0.50333 0.84,-0.37 l 14.15,4.81 c 0.27333,0.0933 0.50667,0.25 0.7,0.47 z"
     id="path452"
     sodipodi:nodetypes="cccccccccccccscccccccccccccc" />
  <path
     fill="#0c0b37"
     d="m 555.9,764.52 0.05,109.26 c -1.85932,0.65286 -3.78332,1.32527 -5.72834,2.00868 -1.96999,0.75751 -3.89344,1.43555 -5.67582,1.98396 -3.61791,1.20692 -4.46663,1.48083 -8.17419,2.83008 -0.25333,0.13333 -3.39985,1.24639 -3.61318,1.24639 -0.37333,0 -0.53566,0.0662 -0.53552,-0.19173 0.08,-7.14667 0.11704,-13.93405 0.037,-20.66738 -0.02,-1.97 -1,-2.95 -2.29,-4.21 -4.7,-4.55333 -9.48667,-9.01667 -14.36,-13.39 -0.74667,-0.66667 -1.56667,-1.70667 -2.46,-3.12 0.0933,-0.14667 0.11,-0.35667 0.05,-0.63 l 17.88,-6.83 c 0.80771,-0.30737 1.34115,-1.07967 1.34,-1.94 -0.32835,-19.6978 -0.50742,-39.62202 -0.32,-59.11 7.68,-3.18667 15.61333,-5.6 23.8,-7.24 z"
     id="path453"
     sodipodi:nodetypes="cccccsccccccccccc" />
  <path
     fill="#fdffe9"
     d="   M 349.88 724.51   L 369.57 730.98   L 389.38 737.04   L 393.09 738.50   L 393.11 791.64   A 0.82 0.80 73.0 0 1 392.76 792.31   L 385.22 797.69   Q 384.74 798.03 384.19 797.84   L 365.85 791.61   A 0.65 0.65 0.0 0 0 364.99 792.22   L 365.16 836.12   L 348.40 830.60   A 2.05 2.04 -81.7 0 1 347.00 828.71   L 346.63 814.28   L 346.62 746.21   L 346.66 724.03   Q 348.29 723.71 349.88 724.51   Z   M 365.06 769.57   A 0.99 0.99 0.0 0 0 365.73 770.50   L 374.03 773.39   A 0.99 0.99 0.0 0 0 375.35 772.44   L 375.18 755.15   A 0.99 0.99 0.0 0 0 374.51 754.22   L 366.21 751.32   A 0.99 0.99 0.0 0 0 364.89 752.26   L 365.06 769.57   Z"
     id="path435"
     style="fill:#ffffff;fill-opacity:1" />
  <path
     fill="#0c0b37"
     d="   M 720.98 814.95   Q 715.70 816.82 710.10 818.33   Q 709.05 818.61 706.74 820.56   L 707.17 791.01   A 1.42 1.41 -9.9 0 1 708.08 789.72   L 720.42 785.13   A 0.49 0.49 0.0 0 1 721.08 785.59   L 720.98 814.95   Z"
     id="path457" />
  <path
     fill="#78403f"
     d="   M 492.77 811.66   L 492.64 794.33   A 0.99 0.99 0.0 0 1 493.94 793.38   L 504.79 796.97   A 0.99 0.99 0.0 0 1 505.47 797.90   L 505.60 815.23   A 0.99 0.99 0.0 0 1 504.30 816.18   L 493.45 812.59   A 0.99 0.99 0.0 0 1 492.77 811.66   Z"
     id="path458" />
  <path
     fill="#a55239"
     d="m 275.21,803.18 c 0.18667,0.4 0.46271,0.70954 0.65604,0.96954 0.19333,0.25333 0.41729,0.47046 0.84396,0.61046 17.57333,5.72 35.21667,11.84 52.93,18.36 l 18.76,7.48 16.76,5.52 5.75,2.53 c 0.0469,5.82335 0.28502,15.46629 -0.0324,24.73369 L 298.92,837.65 c 1.30667,-7.96667 1.49,-15.91 0.55,-23.83 -0.0305,-0.26846 -0.21265,-0.49712 -0.47,-0.59 -7.26,-2.52 -14.56,-4.96333 -21.9,-7.33 -0.63333,-0.20667 -1.51333,-0.92667 -2.64,-2.16 0.72,0.20667 0.97,0.02 0.75,-0.56 z"
     id="path459"
     sodipodi:nodetypes="cccccccccccccc" />
  <path
     fill="#c66638"
     d="m 259.9,798.16 c 0.81333,0.54667 1.93333,0.93333 3.36,1.16 1.40667,0.21333 2.52667,0.5 3.36,0.86 2.66667,1.14 5.17718,2.17307 7.73718,3.40641 0.90034,0.3749 2.56386,1.04609 3.19719,1.25276 7.34,2.36666 15.03292,4.57107 22.29292,7.09107 0.25735,0.0929 -0.40778,1.6213 -0.37729,1.88976 0.94,7.92 0.75667,15.86333 -0.55,23.83 l -96.29,-35.2 c -0.39333,-0.14667 -0.59333,-0.43 -0.6,-0.85 l -0.16,-23.74 49.43,17.31 c 0.19977,0.0732 0.39693,0.15676 0.59,0.25 2.63333,1.26 5.30333,2.17333 8.01,2.74 z"
     id="path456"
     sodipodi:nodetypes="cccccccccccccc" />
  <path
     fill="#eef9ee"
     d="   M 671.16 814.81   Q 663.42 818.02 655.23 820.42   Q 647.38 822.72 639.39 824.87   A 0.35 0.35 0.0 0 1 638.97 824.40   Q 639.50 823.05 639.57 821.61   L 670.56 810.99   A 0.36 0.35 -10.5 0 1 671.03 811.31   L 671.16 814.81   Z"
     id="path460" />
  <path
     fill="#de722e"
     d="m 370.91,838.65 19.48085,7.01201 c 0.0354,3.7466 0.0958,5.56132 0.0691,8.16799 -0.0333,2.60667 -0.21667,8.12 -0.55,16.54 l -19.13318,-7.00511 c -0.0891,-12.56478 -0.004,-12.53065 0.13315,-24.71489 z"
     id="path461"
     sodipodi:nodetypes="ccccccc" />
  <path
     fill="#fdffe9"
     d="m 295.13,707.53 -0.25,78.68 c -0.006,0.91337 0.57299,1.72998 1.44,2.03 l 14.19,4.82 c 0.55921,0.18516 1.13481,-0.22744 1.13,-0.81 l -0.11,-79.52 18.45,5.88 c 0.22,0.0733 0.42333,0.18 0.61,0.32 l 0.43,0.35 -0.09,21.42 0.11,80.12 c 0.12667,0.76667 0.11333,1.33333 -0.04,1.7 -0.21635,0.53022 -0.81576,0.79467 -1.36,0.6 -17.71333,-6.52 -35.35921,-12.77057 -52.93255,-18.49057 -0.42666,-0.14 -1.09075,-0.49318 -1.31582,-0.71007 -0.19333,-0.26 -0.2025,-0.21 -0.18163,-0.73936 l -0.07,-83.97 -0.1,-17.76 z"
     id="path423"
     sodipodi:nodetypes="ccccccccccccccccccc"
     style="fill:#ffffff;fill-opacity:1" />
  <path
     fill="#c66638"
     d="m 514.20302,888.57259 c -0.0647,0.42441 -0.043,0.16741 -0.12302,0.92741 -0.16667,1.49333 -0.24333,2.99333 -0.23,4.5 0.06,6.59333 0.14,13.19333 0.24,19.8 0.015,0.35468 0.0167,0.55333 -0.09,0.66 -0.25419,0.2669 -0.64632,0.35708 -1,0.23 l -58.14,-21.02 c 0.23333,-6.32 0.86235,-12.34785 0.81568,-18.57452 -0.007,-1.62667 0.13606,-2.98758 0.058,-5.48246 0.14667,-0.39333 0.268,-0.57298 0.52111,-0.65946 0.41702,-0.0893 0.41189,-0.0802 0.74522,0.0264 5.46667,1.78 10.88,3.72 16.24,5.82 0.35333,0.13333 0.56667,0.0133 0.64,-0.36 0.0267,-0.13333 0.0233,-0.29 -0.01,-0.47 0.14667,0.59333 0.52,0.98333 1.12,1.17 5.78,1.78667 11.44667,3.73 17,5.83 0.5376,0.20327 1.1121,-0.19525 1.11,-0.77 v -39.28 c 0,-2.49333 0.49333,-2.59667 1.48,-0.31 z"
     id="path462"
     sodipodi:nodetypes="cccccccccccccccscscc" />
  <path
     fill="#fdffe9"
     d="m 492.21,770.54 c 7.79333,2.68667 14.72333,4.88333 20.79,6.59 0.28667,0.08 0.57333,0.04 0.86,-0.12 l 18.24,-5.25 0.0758,2.49012 c 0.0383,4.25102 -17.66409,4.70658 -17.53585,10.02988 0.25333,10.1 0.20353,20.05687 -0.0498,29.60354 -0.0333,1.29333 0.0798,6.79313 0.2398,16.76646 0.04,2.66 -0.48667,5.18 -1.58,7.56 -0.0933,0.21333 -0.11,0.69 -0.05,1.43 0.06,0.27333 0.0433,0.48333 -0.05,0.63 0.76466,37.76667 0.90098,5.88875 1.26,27.52 0.0133,0.79333 0.39,5.60667 1.13,14.44 0.14667,1.80667 0.35371,3.71092 0.56704,5.59759 L 514.1991,888.57863 494.58,840.61 c -0.98667,-2.28667 -1.48,-2.18333 -1.48,0.31 v 39.28 c 0.002,0.57475 -0.5724,0.97327 -1.11,0.77 -5.55333,-2.1 -11.22,-4.04333 -17,-5.83 -0.6,-0.18667 -0.97333,-0.57667 -1.12,-1.17 L 473.44,765.1 c 0.38667,-0.16 0.73333,-0.19333 1.04,-0.1 5.79333,1.75333 11.70333,3.6 17.73,5.54 z m 0.56,41.12 c 0.004,0.42355 0.27772,0.79739 0.68,0.93 l 10.85,3.59 c 0.64439,0.2125 1.30672,-0.27151 1.3,-0.95 l -0.13,-17.33 c -0.004,-0.42355 -0.27772,-0.79739 -0.68,-0.93 l -10.85,-3.59 c -0.64439,-0.2125 -1.30672,0.27151 -1.3,0.95 z"
     id="path454"
     sodipodi:nodetypes="cccccccccccsccccscccccccccccccccc"
     style="fill:#ffffff;fill-opacity:1" />
  <path
     fill="#b6f2eb"
     d="m 532.42,830.87 c 0.001,0.86033 -0.53229,1.63263 -1.34,1.94 l -17.88,6.83 c -0.06,-0.74 -0.0433,-1.21667 0.05,-1.43 -0.10388,-2.76359 0.025,-5.00997 -0.015,-7.66997 0.0384,-9.93656 0.23881,-16.11775 0.32711,-19.46482 0.0987,-9.71988 0.29167,-20.32964 0.20219,-30.61216 0.065,-1.90045 -0.3639,-3.65794 1.63103,-4.03791 5.73965,-1.69205 9.62788,-2.7107 16.83331,-4.95461 0.0908,18.64237 0.14959,40.75683 0.19136,59.39947 z"
     id="path455"
     sodipodi:nodetypes="cccccccccc" />
  <path
     fill="#b6f2eb"
     d="m 513.15,840.27 c 0.89333,1.41333 1.71333,2.45333 2.46,3.12 4.87333,4.37333 9.66,8.83667 14.36,13.39 1.29,1.26 2.27,2.24 2.29,4.21 0.08,6.73333 0.08,13.67333 0,20.82 l -18.06981,6.76833 C 513.46338,865.99538 513.44536,865.98725 513.11,854.78 c -0.005,-4.74678 -0.0125,-9.41562 0.04,-14.51 z"
     id="path463"
     sodipodi:nodetypes="cccccccc" />
  <path
     fill="#c66638"
     d="m 409.04,851.27 c 0.19333,0.62667 0.60333,1.04667 1.23,1.26 9.28667,3.22 18.75499,6.44942 28.24166,9.63609 -0.78909,25.41365 0.5494,0.22666 -0.85948,25.39666 L 389.91,870.37 c 0.33333,-8.42 0.51667,-13.93333 0.55,-16.54 0.0267,-2.60667 -0.0845,-4.80734 -0.0888,-8.17682 L 407.93,852.08 c 0.45215,0.16314 0.9482,0.0441 1.25,-0.3 0.06,-0.0667 0.0133,-0.23667 -0.14,-0.51 z"
     id="path464"
     sodipodi:nodetypes="cccccccccc" />
  <path
     fill="#de722e"
     d="m 438.43,862.14 17.65539,6.90171 c -0.23133,2.35315 -0.35803,4.38144 -0.35136,6.00811 0.0467,6.22667 0.17311,12.58448 -0.0602,18.90448 l -18.04933,-6.34854 c 0.78968,-25.41066 0.0474,0.0311 0.80549,-25.46576 z"
     id="path465"
     sodipodi:nodetypes="cccccc" />
</svg>
